<?xml version="1.0" encoding="utf-8"?>
<!-- Generator: Adobe Illustrator 16.0.0, SVG Export Plug-In . SVG Version: 6.00 Build 0)  -->
<!DOCTYPE svg PUBLIC "-//W3C//DTD SVG 1.1//EN" "http://www.w3.org/Graphics/SVG/1.1/DTD/svg11.dtd">
<svg version="1.1" id="Calque_1" xmlns="http://www.w3.org/2000/svg" xmlns:xlink="http://www.w3.org/1999/xlink" x="0px" y="0px"
	 width="838px" height="134.334px" viewBox="0 0 838 134.334" enable-background="new 0 0 838 134.334" xml:space="preserve">
<g>
	<g opacity="0.5">
		<g>
			<path fill="#FFFFFF" d="M138.883,8.702c0-4.795,3.886-8.682,8.683-8.682c4.792,0,8.678,3.887,8.678,8.682
				c0,4.792-3.886,8.68-8.678,8.68C142.77,17.382,138.883,13.494,138.883,8.702z"/>
			<circle fill="#FFFFFF" cx="112.842" cy="8.702" r="8.681"/>
			<path fill="#FFFFFF" d="M34.722,4.357c0-2.386,1.952-4.338,4.338-4.338h43.407c2.386,0,4.338,1.952,4.338,4.338v8.686
				c0,2.386-1.952,4.338-4.338,4.338H39.06c-2.386,0-4.338-1.952-4.338-4.338V4.357z"/>
		</g>
		<g>
			<circle fill="#FFFFFF" cx="112.842" cy="43.421" r="8.681"/>
			<path fill="#FFFFFF" d="M156.244,43.421c0,4.794-3.886,8.679-8.678,8.679c-4.797,0-8.683-3.885-8.683-8.679
				c0-4.792,3.886-8.68,8.683-8.68C152.358,34.741,156.244,38.628,156.244,43.421z"/>
		</g>
		<g>
			<circle fill="#FFFFFF" cx="78.125" cy="78.143" r="8.681"/>
			<circle fill="#FFFFFF" cx="43.403" cy="78.143" r="8.68"/>
			<path fill="#FFFFFF" d="M0,78.143c0,4.792,3.886,8.68,8.683,8.68c4.792,0,8.678-3.888,8.678-8.68
				c0-4.795-3.886-8.682-8.678-8.682C3.886,69.461,0,73.348,0,78.143z"/>
			<path fill="#FFFFFF" d="M104.166,82.484c0,2.387,1.952,4.338,4.338,4.338h43.407c2.386,0,4.338-1.951,4.338-4.338v-8.686
				c0-2.386-1.952-4.338-4.338-4.338h-43.407c-2.386,0-4.338,1.952-4.338,4.338V82.484z"/>
		</g>
		<g>
			<path fill="#FFFFFF" d="M138.883,112.223c0,4.793,3.886,8.68,8.683,8.68c4.792,0,8.678-3.887,8.678-8.68s-3.886-8.68-8.678-8.68
				C142.77,103.543,138.883,107.43,138.883,112.223z"/>
		</g>
	</g>
	<g>
		<path fill="#FFFFFF" d="M505.959,108.797h-54.4v-42.31h30.221c3.341,0,6.046-2.707,6.046-6.043c0-3.338-2.705-6.043-6.046-6.043
			h-30.221v-42.31h54.4c3.335,0,6.041-2.706,6.041-6.044c0-3.338-2.706-6.044-6.041-6.044h-60.441c-3.341,0-6.046,2.706-6.046,6.044
			V114.84c0,3.338,2.705,6.045,6.046,6.045h60.441c3.335,0,6.041-2.707,6.041-6.045S509.294,108.797,505.959,108.797z"/>
		<path fill="#FFFFFF" d="M423.527,0.413c-3.114-1.211-6.617,0.332-7.827,3.443l-36.676,94.306L342.351,3.856
			c-1.211-3.112-4.713-4.652-7.822-3.443s-4.654,4.713-3.443,7.823l42.307,108.792c0.931,2.391,3.218,3.854,5.633,3.854
			c0.734,0,1.472-0.132,2.195-0.412c1.613-0.629,2.804-1.881,3.404-3.373c0.014-0.021,0.023-0.043,0.034-0.069L426.971,8.236
			C428.181,5.126,426.636,1.622,423.527,0.413z"/>
		<path fill="#FFFFFF" d="M209.798,0.042h-30.221c-3.34,0-5.967,2.666-5.967,6.004v108.79c0,3.341,2.666,6.047,6.001,6.047h30.201
			c33.384,0,60.432-27.039,60.432-60.42S243.177,0.042,209.798,0.042z M209.759,108.795l-24.209-0.002v-96.81h24.249
			c26.659,0,48.334,21.746,48.334,48.406C258.133,87.051,236.423,108.795,209.759,108.795z"/>
		<path fill="#FFFFFF" d="M318.599,60.441c0-3.338-2.706-6.042-6.041-6.042c-0.006,0-0.016,0-0.02,0h-24.17
			c-3.336,0-6.041,2.707-6.041,6.042c0,3.339,2.705,6.045,6.041,6.045h18.143v48.156c0,0.066-0.01,0.13-0.01,0.197
			c0,3.338,2.706,6.045,6.047,6.045c3.335,0,6.041-2.707,6.041-6.045h0.01V60.444l0,0V60.441z"/>
		<circle fill="#FFFFFF" cx="312.558" cy="30.163" r="12.089"/>
	</g>
</g>
<g>
	<path fill="#FFFFFF" d="M554.688,120V74.188h6.062v40.406h22.562V120H554.688z"/>
	<path fill="#FFFFFF" d="M589.844,80.656v-6.469h5.625v6.469H589.844z M589.844,120V86.812h5.625V120H589.844z"/>
	<path fill="#FFFFFF" d="M609.219,120H604V74.188h5.625v16.344c2.375-2.979,5.406-4.469,9.094-4.469
		c2.041,0,3.974,0.412,5.797,1.234c1.822,0.823,3.322,1.979,4.5,3.469c1.177,1.49,2.099,3.287,2.766,5.391
		c0.666,2.104,1,4.354,1,6.75c0,5.688-1.406,10.084-4.219,13.188c-2.812,3.104-6.188,4.656-10.125,4.656
		c-3.917,0-6.99-1.635-9.219-4.906V120z M609.156,103.156c0,3.979,0.541,6.854,1.625,8.625c1.771,2.896,4.166,4.344,7.188,4.344
		c2.458,0,4.583-1.067,6.375-3.203c1.791-2.135,2.688-5.317,2.688-9.547c0-4.333-0.859-7.531-2.578-9.594s-3.797-3.094-6.234-3.094
		c-2.459,0-4.584,1.068-6.375,3.203C610.052,96.026,609.156,99.115,609.156,103.156z"/>
	<path fill="#FFFFFF" d="M639.562,120V86.812h5.062v5.031c1.291-2.354,2.484-3.906,3.578-4.656s2.297-1.125,3.609-1.125
		c1.896,0,3.822,0.604,5.781,1.812l-1.938,5.219c-1.375-0.812-2.75-1.219-4.125-1.219c-1.229,0-2.334,0.37-3.312,1.109
		c-0.979,0.74-1.678,1.766-2.094,3.078c-0.625,2-0.938,4.188-0.938,6.562V120H639.562z"/>
	<path fill="#FFFFFF" d="M682.594,115.906c-2.084,1.771-4.089,3.021-6.016,3.75c-1.928,0.729-3.995,1.094-6.203,1.094
		c-3.646,0-6.448-0.891-8.406-2.672c-1.959-1.781-2.938-4.057-2.938-6.828c0-1.625,0.369-3.109,1.109-4.453
		c0.739-1.344,1.708-2.422,2.906-3.234c1.197-0.812,2.547-1.427,4.047-1.844c1.104-0.291,2.771-0.572,5-0.844
		c4.541-0.541,7.885-1.188,10.031-1.938c0.021-0.771,0.031-1.26,0.031-1.469c0-2.291-0.531-3.906-1.594-4.844
		c-1.438-1.271-3.573-1.906-6.406-1.906c-2.646,0-4.6,0.464-5.859,1.391c-1.261,0.928-2.193,2.568-2.797,4.922l-5.5-0.75
		c0.5-2.354,1.322-4.255,2.469-5.703c1.146-1.447,2.802-2.562,4.969-3.344c2.166-0.781,4.677-1.172,7.531-1.172
		c2.833,0,5.135,0.334,6.906,1c1.771,0.667,3.072,1.506,3.906,2.516c0.833,1.011,1.416,2.287,1.75,3.828
		c0.188,0.959,0.281,2.688,0.281,5.188v7.5c0,5.229,0.119,8.537,0.359,9.922c0.239,1.386,0.713,2.714,1.422,3.984h-5.875
		C683.135,118.834,682.76,117.469,682.594,115.906z M682.125,103.344c-2.042,0.834-5.104,1.542-9.188,2.125
		c-2.312,0.334-3.948,0.709-4.906,1.125c-0.959,0.417-1.698,1.026-2.219,1.828c-0.521,0.803-0.781,1.693-0.781,2.672
		c0,1.5,0.567,2.75,1.703,3.75c1.135,1,2.797,1.5,4.984,1.5c2.166,0,4.094-0.474,5.781-1.422c1.688-0.947,2.927-2.244,3.719-3.891
		c0.604-1.271,0.906-3.146,0.906-5.625V103.344z"/>
	<path fill="#FFFFFF" d="M696.469,120V86.812h5.062v5.031c1.291-2.354,2.484-3.906,3.578-4.656s2.297-1.125,3.609-1.125
		c1.896,0,3.822,0.604,5.781,1.812l-1.938,5.219c-1.375-0.812-2.75-1.219-4.125-1.219c-1.229,0-2.334,0.37-3.312,1.109
		c-0.979,0.74-1.678,1.766-2.094,3.078c-0.625,2-0.938,4.188-0.938,6.562V120H696.469z"/>
	<path fill="#FFFFFF" d="M717.594,132.781l-0.625-5.281c1.229,0.333,2.302,0.5,3.219,0.5c1.25,0,2.25-0.209,3-0.625
		c0.75-0.417,1.364-1,1.844-1.75c0.354-0.562,0.927-1.959,1.719-4.188c0.104-0.312,0.271-0.771,0.5-1.375l-12.594-33.25h6.062
		l6.906,19.219c0.896,2.438,1.697,5,2.406,7.688c0.646-2.583,1.416-5.104,2.312-7.562l7.094-19.344h5.625l-12.625,33.75
		c-1.354,3.646-2.406,6.156-3.156,7.531c-1,1.854-2.146,3.213-3.438,4.078c-1.292,0.864-2.834,1.297-4.625,1.297
		C720.135,133.469,718.927,133.239,717.594,132.781z"/>
</g>
<g>
	<path fill="#FFFFFF" d="M793.937,23.113c-0.727,0-1.307,0.308-1.74,0.923c-0.545,0.785-0.817,2.235-0.817,4.351
		s0.247,3.523,0.742,4.224s1.106,1.05,1.833,1.05s1.337-0.352,1.833-1.055c0.494-0.703,0.742-2.109,0.742-4.219
		c0-2.121-0.248-3.53-0.742-4.228C795.291,23.461,794.675,23.113,793.937,23.113z"/>
	<path fill="#FFFFFF" d="M808.632,26.528c0.229-0.354,0.343-0.74,0.343-1.156c0-0.609-0.222-1.11-0.663-1.503
		c-0.443-0.393-1.142-0.589-2.097-0.589h-4.078v4.263h3.665c0.779,0,1.389-0.08,1.828-0.241S808.403,26.882,808.632,26.528z"/>
	<path fill="#FFFFFF" d="M817.008,23.113c-0.703,0-1.315,0.287-1.837,0.861s-0.782,1.318-0.782,2.232
		c0,0.82,0.247,1.487,0.742,1.999c0.495,0.514,1.106,0.77,1.833,0.77c0.732,0,1.334-0.256,1.806-0.77
		c0.472-0.512,0.708-1.223,0.708-2.131s-0.241-1.629-0.726-2.162C818.27,23.379,817.688,23.113,817.008,23.113z"/>
	<path fill="#FFFFFF" d="M826,10.939h-54c-6.627,0-12,5.372-12,12v10.719c0,6.628,5.373,12,12,12h54c6.627,0,12-5.372,12-12V22.939
		C838,16.311,832.627,10.939,826,10.939z M783.82,34.741h-1.749l-4.992-12.885h1.846l3.349,9.36c0.27,0.75,0.495,1.453,0.677,2.109
		c0.199-0.703,0.431-1.406,0.694-2.109l3.48-9.36h1.74L783.82,34.741z M797.689,32.047c-0.311,0.929-0.775,1.646-1.393,2.152
		c-0.619,0.508-1.399,0.761-2.343,0.761c-1.242,0-2.218-0.445-2.927-1.336c-0.85-1.072-1.274-2.818-1.274-5.238
		c0-1.523,0.156-2.749,0.47-3.679c0.313-0.928,0.779-1.645,1.398-2.148c0.617-0.504,1.396-0.756,2.333-0.756
		c0.691,0,1.298,0.14,1.819,0.418s0.952,0.68,1.292,1.203c0.34,0.525,0.606,1.164,0.8,1.916c0.193,0.754,0.29,1.769,0.29,3.046
		C798.155,29.898,798,31.119,797.689,32.047z M809.643,34.741l-1.705-2.681c-0.498-0.773-0.908-1.365-1.23-1.775
		s-0.61-0.697-0.866-0.861c-0.254-0.164-0.514-0.278-0.777-0.343c-0.193-0.041-0.51-0.062-0.949-0.062h-1.978v5.722h-1.705V21.856
		h5.713c1.148,0,2.021,0.116,2.619,0.348s1.075,0.64,1.433,1.226s0.536,1.233,0.536,1.942c0,0.914-0.296,1.685-0.888,2.312
		s-1.506,1.025-2.742,1.195c0.451,0.217,0.794,0.431,1.028,0.642c0.498,0.457,0.97,1.028,1.415,1.714l2.241,3.507H809.643z
		 M820.699,31.967c-0.357,0.977-0.89,1.719-1.596,2.229s-1.533,0.765-2.482,0.765c-1.008,0-1.831-0.279-2.47-0.839
		s-1.022-1.347-1.151-2.36l1.521-0.141c0.129,0.715,0.375,1.233,0.738,1.556s0.829,0.483,1.397,0.483
		c0.486,0,0.912-0.111,1.279-0.334c0.365-0.223,0.666-0.52,0.9-0.892s0.431-0.875,0.589-1.508s0.237-1.277,0.237-1.934
		c0-0.07-0.003-0.176-0.009-0.316c-0.316,0.504-0.749,0.913-1.296,1.227c-0.549,0.313-1.142,0.47-1.78,0.47
		c-1.066,0-1.969-0.387-2.707-1.16s-1.107-1.793-1.107-3.059c0-1.307,0.385-2.358,1.155-3.155s1.736-1.195,2.896-1.195
		c0.838,0,1.604,0.226,2.299,0.677c0.693,0.451,1.221,1.095,1.582,1.929c0.359,0.836,0.54,2.044,0.54,3.626
		C821.235,29.681,821.057,30.993,820.699,31.967z"/>
</g>
</svg>
