<?xml version="1.0" encoding="utf-8"?>
<!-- Generator: Adobe Illustrator 16.0.0, SVG Export Plug-In . SVG Version: 6.00 Build 0)  -->
<!DOCTYPE svg PUBLIC "-//W3C//DTD SVG 1.1//EN" "http://www.w3.org/Graphics/SVG/1.1/DTD/svg11.dtd">
<svg version="1.1" id="Calque_1" xmlns="http://www.w3.org/2000/svg" xmlns:xlink="http://www.w3.org/1999/xlink" x="0px" y="0px"
	 width="745.062px" height="134.334px" viewBox="0 0 745.062 134.334" enable-background="new 0 0 745.062 134.334"
	 xml:space="preserve">
<g>
	<g opacity="0.5">
		<g>
			<path fill="#FFFFFF" d="M138.883,8.702c0-4.795,3.886-8.682,8.683-8.682c4.792,0,8.678,3.887,8.678,8.682
				c0,4.792-3.886,8.68-8.678,8.68C142.77,17.382,138.883,13.494,138.883,8.702z"/>
			<circle fill="#FFFFFF" cx="112.842" cy="8.702" r="8.681"/>
			<path fill="#FFFFFF" d="M34.722,4.357c0-2.386,1.952-4.338,4.338-4.338h43.407c2.386,0,4.338,1.952,4.338,4.338v8.686
				c0,2.386-1.952,4.338-4.338,4.338H39.06c-2.386,0-4.338-1.952-4.338-4.338V4.357z"/>
		</g>
		<g>
			<circle fill="#FFFFFF" cx="112.842" cy="43.421" r="8.681"/>
			<path fill="#FFFFFF" d="M156.244,43.421c0,4.794-3.886,8.679-8.678,8.679c-4.797,0-8.683-3.885-8.683-8.679
				c0-4.792,3.886-8.68,8.683-8.68C152.358,34.741,156.244,38.628,156.244,43.421z"/>
		</g>
		<g>
			<circle fill="#FFFFFF" cx="78.125" cy="78.143" r="8.681"/>
			<circle fill="#FFFFFF" cx="43.403" cy="78.143" r="8.68"/>
			<path fill="#FFFFFF" d="M0,78.144c0,4.791,3.886,8.68,8.683,8.68c4.792,0,8.678-3.889,8.678-8.68
				c0-4.795-3.886-8.683-8.678-8.683C3.886,69.461,0,73.349,0,78.144z"/>
			<path fill="#FFFFFF" d="M104.166,82.483c0,2.388,1.952,4.339,4.338,4.339h43.407c2.386,0,4.338-1.951,4.338-4.339v-8.686
				c0-2.386-1.952-4.338-4.338-4.338h-43.407c-2.386,0-4.338,1.952-4.338,4.338V82.483z"/>
		</g>
		<g>
			<path fill="#FFFFFF" d="M138.883,112.224c0,4.793,3.886,8.68,8.683,8.68c4.792,0,8.678-3.887,8.678-8.68
				s-3.886-8.681-8.678-8.681C142.77,103.543,138.883,107.431,138.883,112.224z"/>
		</g>
	</g>
	<g>
		<path fill="#FFFFFF" d="M505.959,108.797h-54.4v-42.31h30.222c3.341,0,6.046-2.707,6.046-6.043c0-3.338-2.705-6.043-6.046-6.043
			h-30.222v-42.31h54.4c3.335,0,6.041-2.706,6.041-6.044s-2.706-6.044-6.041-6.044h-60.441c-3.341,0-6.046,2.706-6.046,6.044V114.84
			c0,3.338,2.705,6.045,6.046,6.045h60.441c3.335,0,6.041-2.707,6.041-6.045S509.294,108.797,505.959,108.797z"/>
		<path fill="#FFFFFF" d="M423.527,0.413c-3.114-1.211-6.617,0.332-7.827,3.443l-36.676,94.306L342.351,3.856
			c-1.211-3.112-4.713-4.652-7.821-3.443c-3.109,1.209-4.654,4.713-3.443,7.823l42.307,108.792c0.932,2.391,3.219,3.854,5.634,3.854
			c0.733,0,1.472-0.132,2.194-0.412c1.613-0.629,2.805-1.881,3.404-3.373c0.014-0.021,0.023-0.043,0.034-0.068L426.971,8.236
			C428.181,5.126,426.636,1.622,423.527,0.413z"/>
		<path fill="#FFFFFF" d="M209.798,0.042h-30.221c-3.34,0-5.967,2.666-5.967,6.004v108.79c0,3.341,2.666,6.047,6.001,6.047h30.201
			c33.384,0,60.432-27.039,60.432-60.42S243.177,0.042,209.798,0.042z M209.759,108.795l-24.209-0.002v-96.81h24.249
			c26.659,0,48.334,21.746,48.334,48.406C258.133,87.051,236.423,108.795,209.759,108.795z"/>
		<path fill="#FFFFFF" d="M318.599,60.441c0-3.338-2.706-6.042-6.041-6.042c-0.006,0-0.016,0-0.02,0h-24.17
			c-3.336,0-6.041,2.707-6.041,6.042c0,3.339,2.705,6.045,6.041,6.045h18.143v48.156c0,0.066-0.01,0.131-0.01,0.197
			c0,3.338,2.706,6.045,6.047,6.045c3.335,0,6.041-2.707,6.041-6.045h0.01V60.444l0,0V60.441z"/>
		<circle fill="#FFFFFF" cx="312.558" cy="30.163" r="12.089"/>
	</g>
</g>
<g>
	<path fill="#FFFFFF" d="M554.688,120V74.188h6.062v40.405h22.562V120H554.688z"/>
	<path fill="#FFFFFF" d="M589.844,80.656v-6.47h5.625v6.47H589.844z M589.844,120V86.812h5.625V120H589.844z"/>
	<path fill="#FFFFFF" d="M609.219,120H604V74.188h5.625v16.344c2.375-2.979,5.406-4.469,9.094-4.469
		c2.041,0,3.975,0.412,5.797,1.233c1.822,0.823,3.322,1.979,4.5,3.47c1.178,1.489,2.1,3.286,2.767,5.391c0.666,2.104,1,4.354,1,6.75
		c0,5.688-1.406,10.084-4.22,13.188c-2.812,3.104-6.188,4.656-10.125,4.656c-3.916,0-6.989-1.635-9.219-4.906V120z M609.156,103.156
		c0,3.979,0.541,6.854,1.625,8.625c1.771,2.896,4.166,4.344,7.188,4.344c2.458,0,4.583-1.067,6.375-3.203
		c1.791-2.135,2.688-5.317,2.688-9.547c0-4.333-0.859-7.531-2.578-9.594c-1.719-2.063-3.797-3.095-6.234-3.095
		c-2.459,0-4.584,1.068-6.375,3.203C610.052,96.026,609.156,99.115,609.156,103.156z"/>
	<path fill="#FFFFFF" d="M639.562,120V86.812h5.062v5.031c1.291-2.354,2.484-3.906,3.578-4.656s2.297-1.125,3.608-1.125
		c1.896,0,3.822,0.604,5.781,1.812l-1.938,5.219c-1.375-0.812-2.75-1.219-4.125-1.219c-1.229,0-2.334,0.37-3.312,1.109
		c-0.979,0.74-1.678,1.766-2.094,3.078c-0.625,2-0.938,4.188-0.938,6.562V120H639.562z"/>
	<path fill="#FFFFFF" d="M682.594,115.906c-2.084,1.771-4.089,3.021-6.016,3.75c-1.928,0.729-3.995,1.094-6.203,1.094
		c-3.646,0-6.448-0.892-8.406-2.672c-1.959-1.781-2.938-4.058-2.938-6.828c0-1.625,0.369-3.108,1.108-4.453
		c0.739-1.344,1.708-2.422,2.906-3.233c1.197-0.812,2.547-1.428,4.047-1.845c1.104-0.291,2.771-0.571,5-0.844
		c4.541-0.541,7.886-1.188,10.031-1.938c0.021-0.771,0.031-1.26,0.031-1.469c0-2.291-0.531-3.906-1.595-4.844
		c-1.438-1.271-3.572-1.906-6.405-1.906c-2.646,0-4.601,0.465-5.859,1.391c-1.261,0.929-2.192,2.568-2.797,4.923l-5.5-0.75
		c0.5-2.354,1.322-4.255,2.469-5.703c1.146-1.447,2.802-2.562,4.97-3.345c2.166-0.78,4.677-1.172,7.53-1.172
		c2.833,0,5.136,0.334,6.906,1c1.771,0.668,3.072,1.506,3.906,2.517c0.833,1.011,1.416,2.287,1.75,3.828
		c0.188,0.959,0.28,2.688,0.28,5.188v7.5c0,5.229,0.119,8.537,0.359,9.923c0.239,1.385,0.713,2.713,1.422,3.983h-5.875
		C683.135,118.834,682.76,117.469,682.594,115.906z M682.125,103.344c-2.042,0.834-5.104,1.542-9.188,2.125
		c-2.312,0.334-3.948,0.709-4.906,1.125c-0.959,0.417-1.698,1.026-2.219,1.828c-0.521,0.804-0.781,1.693-0.781,2.672
		c0,1.5,0.566,2.75,1.703,3.75c1.135,1,2.797,1.5,4.983,1.5c2.166,0,4.095-0.474,5.781-1.422c1.688-0.946,2.927-2.244,3.719-3.891
		c0.604-1.271,0.906-3.146,0.906-5.625L682.125,103.344L682.125,103.344z"/>
	<path fill="#FFFFFF" d="M696.469,120V86.812h5.062v5.031c1.291-2.354,2.483-3.906,3.578-4.656c1.094-0.75,2.297-1.125,3.608-1.125
		c1.896,0,3.822,0.604,5.781,1.812l-1.938,5.219c-1.375-0.812-2.75-1.219-4.125-1.219c-1.229,0-2.334,0.37-3.312,1.109
		c-0.979,0.74-1.678,1.766-2.094,3.078c-0.625,2-0.938,4.188-0.938,6.562V120H696.469z"/>
	<path fill="#FFFFFF" d="M717.594,132.781l-0.625-5.281c1.229,0.333,2.303,0.5,3.219,0.5c1.25,0,2.25-0.209,3-0.625
		c0.75-0.417,1.364-1,1.845-1.75c0.354-0.562,0.927-1.959,1.719-4.188c0.104-0.312,0.271-0.771,0.5-1.375l-12.594-33.25h6.062
		l6.906,19.22c0.896,2.438,1.697,5,2.406,7.688c0.646-2.583,1.416-5.104,2.312-7.562l7.095-19.344h5.625l-12.625,33.75
		c-1.354,3.646-2.406,6.155-3.156,7.53c-1,1.854-2.146,3.214-3.438,4.078s-2.834,1.297-4.625,1.297
		C720.135,133.469,718.927,133.239,717.594,132.781z"/>
</g>
</svg>
