<?xml version="1.0" standalone="no"?>
<!DOCTYPE svg PUBLIC "-//W3C//DTD SVG 1.1//EN" "http://www.w3.org/Graphics/SVG/1.1/DTD/svg11.dtd" >
<svg xmlns="http://www.w3.org/2000/svg">
<metadata>
This is a custom SVG font generated by IcoMoon.
<iconset grid="16"></iconset>
</metadata>
<defs>
<font id="DiVE-Icon-Font" horiz-adv-x="512" >
<font-face units-per-em="512" ascent="480" descent="-32" />
<missing-glyph horiz-adv-x="512" />
<glyph class="hidden" unicode="&#xf000;" d="M0,480L 512 -32L0 -32 z" horiz-adv-x="0" />
<glyph unicode="&#xe001;" d="M 502.672,45.228L 384.905,163.026c 19.578,31.72, 31.078,68.97, 31.078,108.985
		C 415.983,386.873, 322.859,480, 208,480C 93.124,480,0,386.873,0,272.012C0,157.136, 93.124,64.010, 208,64.010c 40.031,0, 77.281,11.5, 109,31.109
		l 117.765-117.768c 12.468-12.469, 32.814-12.469, 45.282,0l 22.625,22.625C 515.109,12.414, 515.109,32.79, 502.672,45.228z
		 M 208,96.010c-97.048,0-176,78.954-176,176.002C 32,369.045, 110.952,448, 208,448c 97.031,0, 175.983-78.955, 175.983-175.988
		C 383.983,174.964, 305.031,96.010, 208,96.010z M 127.999,288.013l 159.985,0 l0-32.001 L 127.999,256.012 L 127.999,288.013 z"  />
<glyph unicode="&#xe002;" d="M 502.672,45.228L 384.905,163.026c 19.578,31.72, 31.078,68.97, 31.078,108.986
		C 415.983,386.873, 322.859,480, 208,480C 93.124,480,0,386.873,0,272.013C0,157.136, 93.124,64.010, 208,64.010c 40.031,0, 77.281,11.5, 109,31.109
		l 117.765-117.768c 12.468-12.469, 32.814-12.469, 45.282,0l 22.625,22.625C 515.109,12.414, 515.109,32.79, 502.672,45.228z
		 M 208,96.010c-97.048,0-176,78.955-176,176.003C 32,369.045, 110.952,448, 208,448c 97.031,0, 175.983-78.955, 175.983-175.987
		C 383.983,174.965, 305.031,96.010, 208,96.010z M 224,288.013l 63.984,0 l0-32.001 L 224,256.012 l0-64 l-32,0 l0,64 l-64.001,0 l0,32.001 L 192,288.013 l0,64.001 l 32,0 L 224,288.013 z"  />
<glyph unicode="&#xe003;" d="M 352.023,416l-64.008,0 L 288.015,480 l 64.008,0 L 352.023,416 z M 478.406,401.125l-45.258,45.25l-45.25-45.25l 45.25-45.25L 478.406,401.125z
		 M 512,320l-64.008,0 l0-64 L 512,256 L 512,320 z M 478.406,174.875l-45.289,45.25l-45.25-45.25l 45.281-45.25L 478.406,174.875z M 252.141,401.156
		l-45.25,45.25l-45.258-45.25l 45.258-45.25L 252.141,401.156z M 384.023,320l0-32 c0-17.594-10.188-42.188-22.625-54.625l-242.766-242.75
		C 106.195-21.812, 81.602-32, 64.008-32L 32-32 c-17.594,0-32,14.406-32,32l0,32 c0,17.594, 10.188,42.188, 22.625,54.625l 242.766,242.75
		C 277.828,341.812, 302.422,352, 320.023,352l 32,0 C 369.617,352, 384.023,337.594, 384.023,320z M 352.023,320l-50.758,0 l-32-32l 50.758-50.75
		l 32,32L 352.023,320 z"  />
<glyph unicode="&#xe004;" d="M 480,400L 32,400 C 14.406,400,0,385.594,0,368l0-288 c0-17.594, 14.406-32, 32-32l 448,0 c 17.594,0, 32,14.406, 32,32L 512,368 
		C 512,385.594, 497.594,400, 480,400z M 480,96L 32,96 L 32,352 l 448,0 L 480,96 z M 192,160L 192,288 c0,8.797, 6.297,12.5, 13.984,8.234l 116.031-64.469
		c 7.688-4.266, 7.688-11.266,0-15.531l-116.031-64.469C 198.297,147.5, 192,151.203, 192,160z M 80,304L 48,304 l0,32 l 32,0 L 80,304 z M 80,256L 48,256 l0,32 l 32,0 
		L 80,256 z M 80,208L 48,208 l0,32 l 32,0 L 80,208 z M 80,160L 48,160 l0,32 l 32,0 L 80,160 z M 80,112L 48,112 l0,32 l 32,0 L 80,112 z M 464,304l-32,0 l0,32 l 32,0 L 464,304 z M 464,256l-32,0 l0,32 l 32,0 L 464,256 z
		 M 464,208l-32,0 l0,32 l 32,0 L 464,208 z M 464,160l-32,0 l0,32 l 32,0 L 464,160 z M 464,112l-32,0 l0,32 l 32,0 L 464,112 z"  />
<glyph unicode="&#xe005;" d="M 128,352.002C 128,422.749, 185.312,480, 256,480s 127.998-57.251, 127.998-127.998
		c0-70.688-57.31-128.001-127.998-128.001S 128,281.314, 128,352.002z M 500.435,68.608l-65.438,96.673
		c-20.281,28.954-62.904,35.126-91.842,14.859C 316.688,167.281, 291,160.953, 256,160.953s-60.688,6.328-87.156,19.188
		c-28.938,20.267-71.562,14.095-91.842-14.859l-65.438-96.673c-20.25-28.953-13.219-68.859, 15.719-89.142
		c 12.094-8.469, 26.094-12.109, 39.75-11.375l 377.934,0 c 13.656-0.734, 27.656,2.906, 39.75,11.375
		C 513.654-0.251, 520.685,39.655, 500.435,68.608z"  />
<glyph unicode="&#xe006;" d="M 256,384l 192-192l0-32 l-96,0 l0-160 c0-17.594-14.406-32-32-32L 192-32 c-17.594,0-32,14.406-32,32L 160,160 L 64,160 l0,32 L 256,384z
		 M 480,480L 32,480 L0,480 l0-32 l0-64 l 32,0 L 32,448 l 448,0 l0-64 l 32,0 L 512,448 L 512,480 L 480,480 z"  />
<glyph unicode="&#xe007;" d="M 224,64L 96,64 l0,32 l 128,0 L 224,64 z M 224,160L 96,160 l0,32 l 128,0 L 224,160 z M 242.501,256L 77.502,256 L 32,256 c-18.146,0-32-13.812-32-32l0-192 
		c0-18.185, 13.854-32, 32-32l 256,0.017c 18.142,0, 31.982,13.798, 31.982,31.983L 320,224c0,18.188-13.858,32-32,32L 242.501,256 z
		 M 288.008,256l0,59.691 c0,45.595, 37.012,82.692, 82.5,82.692c 45.487,0, 82.499-37.098, 82.499-82.692L 453.007,224 l 45.499,0 l0,91.691 
		C 498.506,388.758, 443.388,448, 370.508,448c-72.913,0-128.002-59.242-128.002-132.309L 242.506,256 L 288.008,256 z"  />
<glyph unicode="&#xe008;" d="M 64,352L 64,384 c0,20.828, 11.215,32, 32,32l 320,0 c 20.785,0, 32-11.172, 32-32l0-32 L 64,352 z M 416,320l0-320 
		c0-20.828-11.2-32-32-32L 128-32 c-20.817,0-32,11.172-32,32L 96,320 L 416,320 z M 192,239.982c0,8.836-7.157,16.018-15.999,16.018
		c-8.842,0-16.001-7.181-16.001-16.018l0-191.95 c0-8.836, 7.159-16.033, 16.001-16.033c 8.843,0, 15.999,7.197, 15.999,16.033L 192,239.982 z
		 M 207.988,479.504C 199.144,479.504, 192,472.366, 192,463.53s 7.144-16.027, 15.988-16.027l 96.025,0 c 8.812,0, 15.988,7.191, 15.988,16.027
		s-7.176,15.974-15.988,15.974L 207.988,479.504 z M 272,239.984c0,8.835-7.173,16.016-16,16.016c-8.826,0-16-7.181-16-16.016l0-191.953 
		c0-8.836, 7.174-16.031, 16-16.031c 8.827,0, 16,7.196, 16,16.031L 272,239.984 z M 352,239.992c0,8.831-7.155,16.008-16.008,16.008
		c-8.822,0-15.992-7.177-15.992-16.008l0-191.968 c0-8.831, 7.171-16.024, 15.992-16.024c 8.852,0, 16.008,7.192, 16.008,16.024L 352,239.992 z"  />
<glyph unicode="&#xe009;" d="M 464.039,480L 352.131,480 c-26.383,0-63.229-15.269-81.869-33.911L 14.006,189.818
		c-18.672-18.641-18.672-49.18-0.016-67.821l 140.008-140.015c 18.656-18.643, 49.164-18.643, 67.836,0L 478.090,238.251
		C 496.73,256.893, 512,293.737, 512,320.124L 512,432.037 C 512,458.423, 490.424,480, 464.039,480z M 384,288c-35.354,0-64,28.667-64,64.001
		C 320,387.333, 348.646,416, 384,416c 35.354,0, 64-28.667, 64-63.999C 448,316.667, 419.354,288, 384,288z"  />
<glyph unicode="&#xe00a;" d="M 384,160L 512,288L 352,320L 256,480L 160,320L0,288L 128,160L 97.783-32L 256.5,64L 414.216-32 	z"  />
<glyph unicode="&#xe00b;" d="M 256,480C 114.609,480,0,365.375,0,224s 114.609-256, 256-256s 256,114.625, 256,256S 397.391,480, 256,480z M 32,224
		C 32,347.516, 132.484,448, 256,448c 56,0, 107.156-20.812, 146.469-54.906L 336,326.625L 336,384 l-91.438-80L 160,304 c-8.797,0-16-7.203-16-16l0-128 
		c0-6.844, 4.406-12.609, 10.5-14.875l-67.594-67.594C 52.812,116.844, 32,168, 32,224z M 256,0c-56,0-107.156,20.812-146.469,54.906
		L 198.625,144l 45.938,0 L 336,64L 336,281.375 l 89.094,89.094C 459.188,331.156, 480,280, 480,224C 480,100.484, 379.516,0, 256,0z"  />
<glyph unicode="&#xe00c;" d="M 191.92,64l-91.399,80L 15.993,144 C 7.2,144,0,151.203,0,160L0,288 c0,8.797, 7.2,16, 15.993,16l 84.527,0 l 91.399,80L 191.919,64 
		z M 342.388,60.688C 385.994,104.297, 410,162.297, 410,224s-24.006,119.703-67.612,163.312c-6.247,6.25-16.368,6.25-22.615,0
		c-6.248-6.25-6.248-16.375,0-22.625c 37.546-37.578, 58.241-87.531, 58.241-140.688c0-53.156-20.695-103.109-58.241-140.688
		c-6.248-6.25-6.248-16.375,0-22.625c 3.123-3.125, 7.216-4.688, 11.308-4.688S 339.264,57.562, 342.388,60.688z M 270.418,132.688
		c 24.364,24.375, 37.797,56.812, 37.797,91.312s-13.433,66.938-37.797,91.312c-6.248,6.25-16.368,6.25-22.615,0
		c-6.248-6.25-6.248-16.375,0-22.625c 18.336-18.344, 28.425-42.734, 28.425-68.688s-10.089-50.344-28.425-68.688
		c-6.248-6.25-6.248-16.375,0-22.625c 3.123-3.125, 7.215-4.688, 11.308-4.688C 263.202,128, 267.294,129.562, 270.418,132.688z"  />
<glyph unicode="&#xe00d;" d="M 191.786,64l-91.336,80L 15.982,144 C 7.195,144,0,151.203,0,160L0,288 c0,8.797, 7.195,16, 15.982,16l 84.468,0 
		l 91.336,80L 191.786,64 z M 270.229,132.688C 294.577,157.062, 308,189.5, 308,224s-13.423,66.938-37.771,91.312c-6.243,6.25-16.356,6.25-22.6,0
		c-6.243-6.25-6.243-16.375,0-22.625c 18.323-18.344, 28.405-42.734, 28.405-68.688s-10.082-50.344-28.405-68.688
		c-6.243-6.25-6.243-16.375,0-22.625c 3.121-3.125, 7.211-4.688, 11.3-4.688C 263.019,128, 267.108,129.562, 270.229,132.688z"  />
<glyph unicode="&#xe00e;" d="M 192,64l-91.438,80L 16,144 c-8.797,0-16,7.203-16,16L0,288 c0,8.797, 7.203,16, 16,16l 84.562,0 L 192,384L 192,64 z
		 M 414.531-11.312C 477.375,51.547, 512,135.109, 512,224c0,88.875-34.625,172.438-97.469,235.312c-6.25,6.25-16.375,6.25-22.625,0
		s-6.25-16.375,0-22.625C 448.719,379.859, 480,304.328, 480,224c0-80.344-31.281-155.875-88.094-212.688
		c-6.25-6.25-6.25-16.375,0-22.625c 3.125-3.125, 7.219-4.688, 11.312-4.688C 407.312-16, 411.406-14.438, 414.531-11.312z
		 M 342.531,60.688c 43.625,43.609, 67.641,101.609, 67.641,163.312s-24.016,119.703-67.641,163.312c-6.25,6.25-16.375,6.25-22.625,0
		s-6.25-16.375,0-22.625c 37.562-37.578, 58.266-87.531, 58.266-140.688c0-53.156-20.703-103.109-58.266-140.688
		c-6.25-6.25-6.25-16.375,0-22.625c 3.125-3.125, 7.219-4.688, 11.312-4.688C 335.312,56, 339.406,57.562, 342.531,60.688z
		 M 270.531,132.688c 24.375,24.375, 37.812,56.812, 37.812,91.312s-13.438,66.938-37.812,91.312c-6.25,6.25-16.375,6.25-22.625,0
		s-6.25-16.375,0-22.625c 18.344-18.344, 28.438-42.734, 28.438-68.688s-10.094-50.344-28.438-68.688c-6.25-6.25-6.25-16.375,0-22.625
		c 3.125-3.125, 7.219-4.688, 11.313-4.688C 263.312,128, 267.406,129.562, 270.531,132.688z"  />
<glyph unicode="&#xe00f;" d="M 384,160c-22.608,0-43.387-7.819-59.79-20.896l-102.485,64.054C 223.21,209.869, 224,216.842, 224,224
		s-0.79,14.131-2.276,20.842l 102.485,64.054C 340.613,295.819, 361.392,288, 384,288c 53.019,0, 96,42.98, 96,96S 437.019,480, 384,480
		s-96-42.98-96-96c0-7.158, 0.79-14.131, 2.276-20.842L 187.79,299.104C 171.387,312.181, 150.608,320, 128,320c-53.019,0-96-42.98-96-96
		s 42.981-96, 96-96c 22.608,0, 43.387,7.819, 59.79,20.896l 102.485-64.054C 288.79,78.131, 288,71.158, 288,64c0-53.020, 42.981-96, 96-96
		s 96,42.98, 96,96S 437.019,160, 384,160z"  />
<glyph unicode="&#xe010;" d="M 126,192l 98-96l-98-96L 96,0 l0,64 L0,64 l0,64 l 96,0 l0,64 L 126,192 z M 512,416l0-320 c0-17.594-14.406-32-32-32L 288,64 l 31.667,32L 480,96 
		L 480,394.938 L 256,192L 32,394.938L 32,256 l0-64 L0,192 L0,416 c0,17.594, 14.406,32, 32,32l 448,0 C 497.594,448, 512,433.594, 512,416z M 256,234.125L 455.406,416
		L 56.594,416 L 256,234.125z"  />
<glyph unicode="&#xe011;" d="M 224,272l-96-112L 96,160 l0,64 L0,224 l0,96 l 96,0 L 96,384 l 32,0 L 224,272z M 512,448l0-448 c0-17.594-14.406-32-32-32L 224-32 
		c-17.594,0-32,14.406-32,32L 192,192 l 32,32l0-160 l 256,0 L 480,448 L 224,448 l0-128 l-32,32L 192,448 c0,17.594, 14.406,32, 32,32l 256,0 C 497.594,480, 512,465.594, 512,448z
		 M 288,32l-64,0 l0-32 l 64,0 L 288,32 z M 384,32l-64,0 l0-32 l 64,0 L 384,32 z M 480,32l-64,0 l0-32 l 64,0 L 480,32 z"  />
<glyph unicode="&#xe012;" d="M 489.375,374.625l-82.75,82.75C 394.188,469.812, 369.594,480, 352,480L 32,480 C 14.406,480,0,465.594,0,448l0-448 c0-17.594, 14.406-32, 32-32
		l 448,0 c 17.594,0, 32,14.406, 32,32L 512,320 C 512,337.594, 501.812,362.188, 489.375,374.625z M 320,416l0-128 l-64,0 L 256,416 L 320,416 z M 480,0L 32,0 L 32,448 l 96,0 l0-224 
		l 256,0 L 384,434.75 L 466.75,352c 6.438-6.438, 13.25-22.891, 13.25-32L 480,0 z"  />
<glyph unicode="&#xe013;" d="M0,480l0-512 l 512,0 L 512,480 L0,480 z M 391.75,88.25l0-0.031 c-12.438-12.438-32.813-12.438-45.25,0l-90.5,90.5l-90.5-90.5
		c-12.438-12.438-32.813-12.438-45.25,0l-0.031,0.031c-12.438,12.438-12.438,32.812,0,45.25l 90.5,90.5l-90.5,90.5
		c-12.438,12.438-12.438,32.812,0,45.25l 0.031,0 c 12.437,12.438, 32.812,12.438, 45.25,0l 90.5-90.5l 90.5,90.5
		c 12.437,12.438, 32.812,12.438, 45.25,0l0,0c 12.437-12.438, 12.437-32.812,0-45.25l-90.5-90.5l 90.5-90.5
		C 404.187,121.062, 404.219,100.688, 391.75,88.25z"  />
<glyph unicode="&#xe014;" d="M 391.75,314.5l-90.5-90.5l 90.5-90.5c 12.438-12.438, 12.438-32.812,0-45.25l0-0.031 
		c-12.438-12.438-32.812-12.438-45.25,0l-90.5,90.5l-90.516-90.5c-12.438-12.438-32.812-12.438-45.25,0l-0.016,0.031
		c-12.438,12.438-12.438,32.812,0,45.25l 90.5,90.5l-90.5,90.5c-12.438,12.438-12.438,32.812,0,45.25l 0.016,0 
		c 12.438,12.438, 32.812,12.438, 45.25,0L 256,269.25l 90.5,90.5c 12.438,12.438, 32.812,12.438, 45.25,0S 404.188,326.938, 391.75,314.5z
		 M 512,416l0-384 c0-35.188-28.812-64-64-64L 64-32 c-35.188,0-64,28.812-64,64L0,416 C0,451.188, 28.812,480, 64,480l 384,0 C 483.188,480, 512,451.188, 512,416z
		 M 480,416c0,17.656-14.375,32-32,32L 64,448 c-17.625,0-32-14.344-32-32l0-384 c0-17.656, 14.375-32, 32-32l 384,0 c 17.625,0, 32,14.344, 32,32L 480,416 z"  />
<glyph unicode="&#xe015;" d="M 256,480C 114.589,480,0,365.426,0,223.992C0,82.684, 114.589-32, 256-32c 141.357,0, 256,114.684, 256,255.992
		C 512,365.426, 397.357,480, 256,480z M 372.214,159.494c 14.215-14.188, 14.215-37.498,0-51.686c-14.214-14.219-37.5-14.219-51.714,0
		l-64.571,64.561l-64.571-64.561c-14.215-14.219-37.5-14.219-51.715,0c-14.214,14.188-14.214,37.498,0,51.686l 64.571,64.592
		l-64.553,64.561c-14.215,14.219-14.215,37.499,0,51.717c 14.214,14.219, 37.5,14.219, 51.714,0l 64.554-64.561l 64.571,64.561
		c 14.214,14.219, 37.5,14.219, 51.714,0c 14.215-14.218, 14.215-37.498,0-51.717l-64.571-64.561L 372.214,159.494z"  />
<glyph unicode="&#xe016;" d="M 298.664,266.668l 77.875,77.875C 345.664,375.48, 303.039,394.668, 256,394.668
		c-94.105,0-170.668-76.562-170.668-170.668c0-94.103, 76.562-170.666, 170.668-170.666c 94.102,0, 170.664,76.562, 170.664,170.666L 512,224 
		c0-141.375-114.605-256-256-256C 114.602-32,0,82.625,0,224S 114.602,480, 256,480c 70.707,0, 134.602-28.75, 180.875-75.125L 512,480l0-170.666 
		c0-23.459-19.211-42.666-42.668-42.666L 298.664,266.668 z"  />
<glyph unicode="&#xe017;" d="M 277.294,10.666c0-23.562-19.068-42.666-42.588-42.666c-23.52,0-42.588,19.103-42.588,42.666
		s 19.068,42.666, 42.588,42.666C 258.226,53.332, 277.294,34.228, 277.294,10.666z M 277.294,480l-42.588,0 C 146.64,480, 75,408.229, 75,320
		c0-23.562, 19.068-42.668, 42.588-42.668l 42.59,0 L 160.178,320 c0,41.166, 33.438,74.666, 74.528,74.666l 42.588,0 c 41.092,0, 74.53-33.5, 74.53-74.666
		c0-41.168-33.439-74.668-74.53-74.668c-46.955,0-85.176-38.27-85.176-85.332l0-21.334 c0-23.562, 19.068-42.666, 42.588-42.666l 42.588,0 
		l0,42.666 L 277.294,160 C 365.362,160, 437,231.77, 437,320C 437,408.229, 365.362,480, 277.294,480z"  />
<glyph unicode="&#xe018;" d="M 352,352L 160,352 L 160,384 l 192,0 L 352,352 z M 352,320L 160,320 l0-32 l 192,0 L 352,320 z M 512,224l0-160 c0-17.594-14.406-32-32-32l-32,0 l0-64 L 64-32 l0,64 
		L 32,32 c-17.594,0-32,14.406-32,32L0,224 c0,17.594, 14.406,32, 32,32l 32,0 L 64,480 l 384,0 l0-224 l 32,0 C 497.594,256, 512,241.594, 512,224z M 416,80L 96,80 l0-48 l0-32 
		l 320,0 l0,32 L 416,80 z M 416,448L 96,448 l0-192 l 320,0 L 416,448 z"  />
<glyph unicode="&#xe019;" d="M 416,224c0-17.594-14.406-32-32-32l-96,0 l0-96 c0-17.594-14.406-32-32-32c-17.594,0-32,14.406-32,32l0,96 l-96,0 
		c-17.594,0-32,14.406-32,32c0,17.594, 14.406,32, 32,32l 96,0 l0,96 c0,17.594, 14.406,32, 32,32c 17.594,0, 32-14.406, 32-32l0-96 l 96,0 
		C 401.594,256, 416,241.594, 416,224z"  />
<glyph unicode="&#xe01a;" d="M 416,224c0-17.594-14.406-32-32-32l-96,0 l0-96 c0-17.594-14.406-32-32-32c-17.594,0-32,14.406-32,32l0,96 l-96,0 
		c-17.594,0-32,14.406-32,32c0,17.594, 14.406,32, 32,32l 96,0 l0,96 c0,17.594, 14.406,32, 32,32c 17.594,0, 32-14.406, 32-32l0-96 l 96,0 
		C 401.594,256, 416,241.594, 416,224z M 512,416l0-384 c0-35.188-28.812-64-64-64L 64-32 c-35.188,0-64,28.812-64,64L0,416 C0,451.188, 28.812,480, 64,480
		l 384,0 C 483.188,480, 512,451.188, 512,416z M 480,416c0,17.656-14.375,32-32,32L 64,448 c-17.625,0-32-14.344-32-32l0-384 c0-17.656, 14.375-32, 32-32
		l 384,0 c 17.625,0, 32,14.344, 32,32L 480,416 z"  />
<glyph unicode="&#xe01b;" d="M 341.334,480L0,138.688L0-32 l 170.668,0 L 512,309.344L 341.334,480z M 451.668,309.344L 391.334,249L 281,359.344
		l 60.334,60.344L 451.668,309.344z M 153,10.688L 42.668,121l 208.166,208.188l 110.334-110.344L 153,10.688z"  />
<glyph unicode="&#xe01c;" d="M 416,256L 416,448 c0,17.594-14.406,32-32,32L 32,480 C 14.406,480,0,465.594,0,448l0-384 c0-17.594, 14.406-32, 32-32l 224.469,0 L 256.469,224 
		c0,17.594, 14.406,32, 32,32L 416,256 z M 288,384L 128,384 L 128,416 l 160,0 L 288,384 z M 511.938,160L 448,223.938L 448,224 L 320,224 c-17.594,0-32-14.406-32-32l0-192 
		c0-17.594, 14.406-32, 32-32l 160,0 c 17.594,0, 32,14.406, 32,32L 512,160 L 511.938,160 z M 480,0L 320,0 L 320,192 l 96,0 l0-32 l0-32 l 32,0 l 32,0 L 480,0 z"  />
<glyph unicode="&#xe01d;" d="M 493.396,382.82L 432.959,443.35C 399.711,476.648, 299.93,461.502, 266.711,428.201L 24.961,186.088
		c-33.281-33.301-33.281-87.82,0-121.088l 37.968-38.026l0,0l 2.438-2.441l 20.031-20.093l 0.844,0.877
		c 20.812-13.615, 49.188-11.299, 67.406,6.947l 211.063,211.412c 20.875,20.937, 20.875,55.238,0,76.144l-14.594,14.648
		c-20.969,20.97-55.188,20.97-76.062,0L 142.367,182.551c-0.312-0.281-0.719-0.375-1.031-0.657c-8.438-8.388-8.438-21.907,0-30.296
		c 8.344-8.355, 21.781-8.355, 30.187,0l 0.156-0.156l 132.594,132.762c 4.188,4.226, 11.375,4.226, 15.625,0l 14.594-14.678
		c 4.188-4.193, 4.188-11.361,0-15.586L 123.429,42.56c-4.219-4.257-11.406-4.257-15.594,0l-8.969,8.95l-43.688,43.754
		c-16.688,16.713-16.688,43.848,0,60.591L 296.93,397.969c 16.688,16.713, 89.125,31.859, 105.781,15.115l 60.467-60.527
		c 16.656-16.744, 1.562-89.229-15.156-105.94L 224.96,23.155c-0.344-0.282-0.719-0.376-1.031-0.689
		c-8.375-8.325-8.375-21.877, 0.031-30.232c 8.219-8.232, 21.25-8.264, 29.625-0.376l 0.281-0.251L 478.303,216.32
		C 511.49,249.621, 526.615,349.552, 493.396,382.82z"  />
<glyph unicode="&#xe01e;" d="M0,258.135C0,371.289, 91.699,463, 204.797,463c 113.102,0, 204.801-91.711, 204.801-204.865L 409.598,224 L 512,224 l0-68.268 
		L 318.633-15L 136.531,155.732L 136.531,224 l 102.402,0 l0,17.067 c0,66.017-53.469,119.5-119.469,119.5S0,307.084,0,241.067"  />
<glyph unicode="&#xe01f;" d="M 480,352L 32,352 c-17.594,0-32-14.406-32-32l0-192 c0-17.594, 14.406-32, 32-32l 448,0 c 17.594,0, 32,14.406, 32,32L 512,320 
		C 512,337.594, 497.594,352, 480,352z M 480,128L 32,128 L 32,320 l 448,0 L 480,128 z M 319.999,165.487L 319.999,282.515 c0,3.474, 1.849,5.485, 5.548,5.485l 20.718,0 
		c 3.514,0, 5.548-2.011, 5.548-5.485l0-72.047 c0-1.28, 1.666-1.461, 2.034-0.183l 17.943,41.090c 0.742,3.107, 2.776,4.754, 6.104,4.754l 12.209,0 
		c 3.329,0, 5.363-1.647, 6.105-4.754l 17.94-41.090c 0.371-1.277, 2.037-1.097, 2.037,0.183l0,72.047 c0,3.474, 1.848,5.485, 5.548,5.485
		l 20.715,0 c 3.7,0, 5.551-2.011, 5.551-5.485l0-117.028 c0-3.657-1.851-5.487-5.551-5.487l-38.288,0 c-3.329,0-5.18,1.83-5.919,4.938
		l-13.133,42.507c-0.371,1.827-1.851,1.827-2.219,0l-13.133-42.507c-0.739-3.108-2.59-4.938-5.919-4.938l-38.29,0 
		C 321.847,160, 319.999,161.83, 319.999,165.487z M 192,165.474l0,116.79 c0,3.649, 2.006,5.474, 5.474,5.474l 85.052,0 
		c 3.649,0, 5.474-1.825, 5.474-5.474l-0.296-20.735c0-3.468-1.825-5.474-5.474-5.474l-52.756,0 c-3.464,0-5.474-1.825-5.474-5.474l0-5.542 
		c0-3.468, 2.010-5.474, 5.474-5.474l 21.052,0 c 3.649,0, 5.474-1.825, 5.474-5.478l0-20.435 c0-3.468-1.825-5.474-5.474-5.474l-21.052,0 
		c-3.464,0-5.474-1.825-5.474-5.474l0-5.229 c0-3.468, 2.010-5.474, 5.474-5.474l 53.052,0 c 3.649,0, 5.474-1.825, 5.474-5.474l0-21.052 
		c0-3.649-1.825-5.474-5.474-5.474l-85.052,0 C 194.006,160, 192,162.006, 192,165.474z M 64,165.485L 64,282.515 
		c0,3.657, 2.006,5.485, 5.474,5.485l 27.403,0 c 3.104,0, 5.111-1.278, 6.387-4.203l 22.573-60.893c 0.73-1.647, 2.188-1.283, 2.188,0.546
		l0,59.065 c0,3.657, 2.010,5.485, 5.474,5.485l 21.027,0 c 3.649,0, 5.474-1.829, 5.474-5.485l0-117.029 c0-3.475-1.825-5.485-5.474-5.485l-27.414,0 
		c-3.101,0-5.107,1.278-6.387,4.207l-22.569,60.889c-0.731,1.646-2.192,1.282-2.192-0.546l0-59.065 c0-3.475-1.825-5.485-5.474-5.485
		L 69.474,160.001 C 66.006,160, 64,162.010, 64,165.485z"  />
<glyph unicode="&#xe020;" d="M 416,224c0-17.594-14.406-32-32-32L 128,192 c-17.594,0-32,14.406-32,32l0,0c0,17.594, 14.406,32, 32,32l 256,0 
		C 401.594,256, 416,241.594, 416,224L 416,224z M 448,448L 64,448 c-17.625,0-32-14.344-32-32l0-384 c0-17.656, 14.375-32, 32-32l 384,0 
		c 17.625,0, 32,14.344, 32,32L 480,416 C 480,433.656, 465.625,448, 448,448 M 448,480c 35.188,0, 64-28.812, 64-64l0-384 c0-35.188-28.812-64-64-64L 64-32 
		c-35.188,0-64,28.812-64,64L0,416 C0,451.188, 28.812,480, 64,480L 448,480 L 448,480z"  />
<glyph unicode="&#xe021;" d="M 256,480C 114.607,479.969,0,365.402,0,223.977C0,82.66, 114.607-32, 256-32c 141.357,0, 256,114.691, 256,256.008
		C 512,365.402, 397.357,479.969, 256,480z M 383.786,187.443l-255.75,0 c-20.106,0-36.571,16.47-36.571,36.564
		c0,20.125, 16.465,36.564, 36.571,36.564l 255.75,0 c 20.107,0, 36.571-16.439, 36.571-36.564
		C 420.357,203.913, 403.893,187.443, 383.786,187.443z"  />
<glyph unicode="&#xe022;" d="M 384,256l0,59.691 C 384,388.758, 328.882,448, 256.002,448C 183.089,448, 128,388.758, 128,315.691L 128,256 
		c-18.146,0-32-13.812-32-32l0-192 c0-18.185, 13.854-32, 32-32l 256,0.017c 18.142,0, 31.982,13.798, 31.982,31.983L 416,224
		C 416,242.188, 402.142,256, 384,256z M 320,64L 192,64 l0,32 l 128,0 L 320,64 z M 320,160L 192,160 l0,32 l 128,0 L 320,160 z M 338.501,256L 173.502,256 l0,59.691 
		c0,45.595, 37.012,82.692, 82.5,82.692c 45.487,0, 82.499-37.098, 82.499-82.692L 338.501,256 z"  />
<glyph unicode="&#xe023;" d="M 64,320L 5.859,374.026c-7.813,7.79-7.813,20.418,0,28.216c 7.811,7.797, 20.469,7.797, 28.28,0L 64,376.438
		l 61.858,65.719c 7.813,7.79, 20.469,7.79, 28.283,0c 7.811-7.798, 7.811-20.425,0-28.223L 64,320z M 154.141,253.932
		c 7.811,7.798, 7.811,20.427,0,28.225c-7.813,7.791-20.469,7.791-28.283,0L 64,216.441l-29.861,25.798
		c-7.81,7.798-20.468,7.798-28.28,0c-7.813-7.791-7.813-20.419,0-28.217L 64,160L 154.141,253.932z M 154.142,93.936
		c 7.811,7.79, 7.811,20.418,0,28.216c-7.813,7.798-20.469,7.798-28.283,0L 64,56.439l-29.86,25.805c-7.81,7.79-20.469,7.79-28.28,0
		c-7.813-7.798-7.813-20.426,0-28.223L 64,0L 154.142,93.936z M 512,416L 192,416 l0-64 l 320,0 L 512,416 z M 512,256L 192,256 l0-64 l 320,0 L 512,256 z M 512,96L 192,96 l0-64 
		l 320,0 L 512,96 z"  />
<glyph unicode="&#xe024;" d="M 512,352L 160,352 L 160,415.697 l 352,0 L 512,352 z M 64,448C 28.623,448,0,419.348,0,384.006C0,348.664, 28.623,320, 64,320
		c 35.312,0, 64,28.664, 64,64.006C 128,419.348, 99.312,448, 64,448z M 512,192L 160,192 l0,63.697 l 352,0 L 512,192 z M 64,288c-35.377,0-64-28.652-64-63.994
		C0,188.664, 28.623,160, 64,160c 35.312,0, 64,28.664, 64,64.006C 128,259.348, 99.312,288, 64,288z M 512,32L 160,32 l0,63.697 l 352,0 L 512,32 z M 64,128
		c-35.377,0-64-28.652-64-63.994C0,28.664, 28.623,0, 64,0c 35.312,0, 64,28.664, 64,64.006C 128,99.348, 99.312,128, 64,128z"  />
<glyph unicode="&#xe025;" d="M 480,256l-48,0 l-48,0 l-16,0 c-7.953,0-15.156-3.031-20.75-7.875c-38.438,45.297-86.797,102.75-91,109.062
		c-1.375,3.031-3.625,15.078-5.406,24.766c-7.609,41.203-15.562,76.359-35.688,89.031C 205.812,476.875, 195.266,480, 184.687,480
		C 161,480, 140.203,465.031, 132.906,442.75c-8.75-26.828-4.062-97.781, 22.906-143.594c 4.281-7.281, 7.625-13.531, 10.219-18.75
		c-29.469-0.266-76.812-1.219-95.812-4.375c-28.391-4.766-58.734-14.75-68.562-52.938c-2.562-10.031-2.219-19.172, 1.5-39.203
		c 1.062-5.547, 4.281-10.953, 8.016-17.219c 1.516-2.531, 4.047-6.766, 4.359-7.266c 0.062-1.156-0.406-4.562-0.75-6.812
		c-0.875-6.016-1.891-12.828-0.25-19.469c 2.141-8.656, 7.531-14.312, 11.469-18.438c 1.469-1.516, 3.625-3.828, 3.953-4.734
		c 0.812-2.953, 0.344-5.891-0.578-10.859c-1.188-6.297-2.813-14.906, 0.219-24.781c 3.25-10.562, 9.5-16.547, 13.656-20.5
		c 1.641-1.562, 3.328-3.172, 3.594-3.969c 2.031-5.906, 3.047-16.094, 3.781-23.562c 1-9.969, 1.562-15.469, 4.281-20.156
		c 11.609-19.766, 65.906-28.969, 223.438-37.906c 2.594-0.141, 5.062-0.219, 7.5-0.219c 24.062,0, 41.578,5.438, 54.734,15.781
		C 346.172-25.609, 356.328-32, 368-32l 4.906,0 L 432-32 l 48,0 c 17.594,0, 32,14.406, 32,32L 512,224 C 512,241.594, 497.594,256, 480,256z M 285.844,0
		c-1.875,0-3.781,0.062-5.688,0.172c-43.062,2.438-170.75,9.688-197.031,23.062c-0.219,1.859-0.438,4.125-0.656,6.281
		c-0.656,6.734-1.469,12.875-2.5,18.656l 45.125,22.672L 71.125,70.843 c-1.969,2.438-4.031,4.469-5.797,6.141
		c-3.016,2.859-4.375,4.234-5.141,6.719c-0.672,2.203-0.203,5.016, 0.625,9.5c 0.078,0.391, 0.156,0.844, 0.219,1.25l 79.828,36.391
		L 54.281,130.844 c-1.656,2.125-3.406,4.156-5.141,5.938c-1.203,1.266-3.234,3.375-3.469,3.609c-0.141,1.297, 0.406,5, 0.766,7.484
		c 0.391,2.625, 0.641,4.656, 0.813,6.469l 85.609,36.5L 34.422,190.844 c-3.078,16.812-2.641,20.875-1.766,24.281
		c 3.859,15.016, 11.828,24.141, 42.813,29.344c 12.453,2.062, 46.422,3.531, 90.844,3.938l 51.063,0.469l-22.672,45.734
		c-3.172,6.422-6.984,13.391-11.328,20.781c-23.344,39.703-25.391,101.047-20.063,117.391C 166.297,441.891, 174.891,448, 184.687,448
		c 4.531,0, 9.156-1.406, 13.422-4.094c 9.906-6.25, 18.453-52.547, 21.266-67.797c 3.375-18.172, 5-26.156, 7.719-32.141l 1.094-2.375
		l 1.438-2.188c 6.781-10.141, 79.578-95.938, 101.719-122l 4.656-5.453l0-190.984 l-15-11.938C 313.344,2.953, 301.844,0, 285.844,0z"  />
<glyph unicode="&#xe026;" d="M 259.203,312.001L 240,312.001 l0,32.001 l 12.781,0 c 44.781,19.406, 79.875,54.47, 99.25,99.247L 352.031,456 l 32,0 l0-19.188 l-1.219-2.938
		c-22.781-54.997-65.625-97.856-120.656-120.654L 259.203,312.001z M 480,192l 32,0 c0,52.626-20.5,94.11-57.719,131.314l-22.625-22.626
		c 11.766-11.766, 21.516-25, 29.125-39.267l-152.984-21.859c 76.828,43.767, 136.625,111.33, 170.984,194.312L 480,436.812L 480,456 l-32,0 l0-12.782 
		c-37.938-89.481-108.188-159.17-198.125-196.437L 240,242.688l0-45.141 l 233.219,33.328C 477.656,215.844, 480,208.095, 480,192z
		 M 242.75,160l-9.375-9.375L 160,77.249l0,50.75 L 160,160 l-32,0 L0,160 l0-32.001 l 128,0 l0-128.002 l 128,128.002l 256,0 L 512,160 L 272,160 L 242.75,160 z M 33.575,192L0,192 
		L 91.76,448.031l 34.064,0 L 223.615,192l-36.020,0 l-27.87,77.543L 59.815,269.543 L 33.575,192z M 68.942,297.137l 81.003,0 L 108.059,416.136L 68.942,297.137z
		"  />
<glyph unicode="&#xe027;" d="M 480,480L 32,480 C 14.406,480,0,465.594,0,448l0-448 c0-17.594, 14.406-32, 32-32l 448,0 c 17.594,0, 32,14.406, 32,32L 512,448 
		C 512,465.594, 497.594,480, 480,480z M 480,0L 32,0 L 32,448 l 448,0 L 480,0 z M 192,352c0,35.333, 28.667,64, 64,64s 64-28.667, 64-64s-28.667-64-64-64
		S 192,316.667, 192,352z M 208,32l-48,0 l0,32 l 32,0 L 192,224 l-32,0 l0,32 l 48,0 l 32,0 l 80,0 l0-192 l 32,0 l0-32 l-48,0 L 208,32 z"  />
<glyph unicode="&#xe028;" d="M0,320L0,480 l 512,0 l0-160 l-64,0 L 448,416 L 64,416 l0-96 L0,320 z M 256-32L 64.003,159.998l0,32.001 l 95.99,0 L 159.993,351.998 c0,17.594, 14.398,32, 32,32
		l 128.006,0 c 17.593,0, 31.999-14.406, 31.999-32l0-159.999 l 95.999,0 l0-32.001 L 256-32z"  />
<glyph unicode="&#xe029;" d="M 320,272c0,35.344, 28.641,64, 64,64c 9.953,0, 19.266-2.469, 27.672-6.531C 386.531,322.328, 368,299.438, 368,272
		s 18.531-50.328, 43.672-57.469C 403.266,210.469, 393.953,208, 384,208C 348.641,208, 320,236.656, 320,272z M 512,384l0-320 
		c0-17.594-14.406-32-32-32L 368,32 L 96,32 L 32,32 c-17.609,0-32,14.406-32,32L0,384 c0,17.594, 14.391,32, 32,32l 448,0 C 497.594,416, 512,401.594, 512,384z
		 M 480,384L 32,384 l0-320 l 16,0 c 8.781,0, 22.078,13.047, 29.531,29l 84.937,182c 7.438,15.953, 19.062,15.703, 25.828-0.531l 55.391-132.938
		c 6.766-16.234, 19.719-17.188, 28.766-2.094l 15.078,25.125c 9.062,15.094, 22.906,14.562, 30.781-1.188l 35.375-70.75
		C 361.562,76.875, 375.187,64, 384,64l 96,0 L 480,384 z"  />
<glyph unicode="&#xe02a;" d="M 512,256L 278.546,470.625C 272.75,476.422, 264.75,480, 255.922,480c-8.828,0-16.828-3.578-22.625-9.375L0,256l0-32 l 64-0.018L 64,0 
		c0-17.594, 14.405-32, 32-32l 96,0 L 192,160 l 128,0 l0-192 l 96,0 c 17.594,0, 32,14.406, 32,32L 448,224.018 L 512,224L 512,256 z"  />
<glyph unicode="&#xe02b;" d="M 256,482C 114.562,482,0,367.375,0,226c0-141.438, 114.562-256, 256-256c 141.375,0, 256,114.562, 256,256
		C 512,367.375, 397.375,482, 256,482z M 256,2c-75,0-141.328,37.172-182,93.922c 0.344,1.047, 1.282,2.156, 3.766,3.578
		c 1.906,1.109, 3.812,2.25, 5.859,2.969c 6.124,2.249, 8.406,0.578, 11.531,7.249c 1.828,3.813, 3.078,5.345, 3.625,9.532
		c 0.625,4.5, 1.281,6.562, 0.921,11.064c-0.374,4.953, 6.892,9.030, 9.282,12.858c 4.844,7.812, 4.109,15.453-4.625,18.297
		c-3.188,1.062-6.562,7.141-10.312,5.766c-4.141-1.484-8.875,1.422-12.141,4.219c-2.828,2.484-7.047,2.86-9.173-0.266
		c-0.812-1.125-2.827-7.062-5.39-3.281c 0.984-1.422, 9.578,10.406, 1.5,7.75c-1.203-0.374-6.5-6.469-7.703-2.469
		c-0.843,3.031, 12.328,2.499, 7.484,8.797c-1.547,2-2.719,1.734-4.188,4.438c-1.469,2.703-3.812,5.016-6.375,6.406
		c-3.345,1.812-6.469-0.625-9.516,0.797c-1.609,0.688-4.829,5.125-5.86,6.797c-1.061,1.828-5.389,0.234-6.64,1.688
		c 0.109-0.109, 2.938,8.391, 2.047,8.047c-4.312-1.562-1.594-3.969-5.203-1.688C 32.437,214.281, 32,220.094, 32,226
		c0,34.344, 8,66.766, 21.859,95.875c 2.89-0.25, 5.297-0.375, 5.672-0.094c 1.359,0.969-0.766,4.844-2.391,6.906
		c 5.938,11.438, 12.875,22.219, 20.608,32.406c 2.142,0.328, 4.61,2.797, 4.86,4.609c 0.156,1.109, 0.266,1.828, 0.375,2.391
		c 0.438,0.531, 0.922,1.031, 1.375,1.562c 0.516,0.062, 1.25,0.25, 2.422,1.188c 0.797,0.594, 0.797,1.391, 0.641,2.188
		c 1.453,1.672, 2.969,3.281, 4.469,4.906c 2.516,0.859, 4.5,1.906, 7.922,1.656c 4.874-0.328, 6.703,5.25, 12.172,5.844
		c 2.531,0.281, 17.609,5.844, 18.609,4.844c-0.845,0.844-5.578,3.594-5.719,4.125c-0.562,1.875, 1.062,3.469, 2.531,3.062
		c 3.188-0.844, 1.28-3.984, 3.766-5.281c 4.781-2.469, 4.484,2.891, 3.453,5.547c-3.672,9.594, 9.328,1.734, 9.031,6.578
		c-0.109,3.156-0.156,6.469, 1.984,8.812c 2.344,2.5-1.812,1.359-2.688,3.672c-0.297,0.734-0.062,1.547, 0.125,2.328
		C 176.282,438.625, 214.797,450, 256,450c 46.359,0, 89.453-14.156, 125.234-38.375c-4.859-0.969-6.562-3.125-11.141-5.266
		c-0.438-0.219-15.407-7.859-11.547-9.203c 3.406-1.281, 12.219-6.156, 15.438-2.625c 2.531,2.719-1.203,3.594-1.906,5.25
		c-1.141,2.781, 5.578,5.531, 7.078,6.266c 2.142,1.125, 4.453,1.703, 6.828,2.031c 5.314-3.797, 10.484-7.797, 15.438-12.047
		c-0.328-0.656-0.391-1.344, 0.047-2.062c 0.249-0.453, 9.281-6.156, 4.516-6.156c-6.859,0-13.094,5.359-20.298,4
		c-3.671-0.688-4.389-5.844-8.577-2.906c-1.219,0.875-8.811,0.438-9.906-0.75c-2.281-2.438-4.485,0.703-7.406,0.516
		c-3.672-0.219-6.53-2.734-10.719-2.422c-1.796,0.125-6.203-4.281-6.531-3.312c-0.922,2.266, 3.735,6-0.328,6.562
		c-9.844,1.281-2.75-4.906-4.812-9.781c 1.438,3.281-7.625,1.125-8.516,0.938c-4.5-0.906-1.828-4.734-5.281-5.75
		c-3.562-1.062-4.656,2.156-8.438,0.312c-2.485-1.156-2.969,0.125-3,2.531c-0.047,1.562-2.75,3.062-2.609,3.875
		c-0.437-2.406, 23.188-0.875, 21.391,2.781c-2.344,4.844-17.531,4.188-21.875,5.875c-5.312,2.125-9.906,3.812-15.469,4.594
		c-12.844,1.844-25.907-0.594-38.016-5.672c-2.344-0.953-4.078-5.141-6.062-6.797c-2.891-2.469-5.609-5.188-8.719-7.344
		c-4.406-3.047-16.515-4.062-13.875-11.75c 1.828-5.234, 3.266-12.125, 10.78-8.719c 1.845,0.844, 1.798,4.312, 4.298,4.375
		c 0.844,0.031, 2.562-6.062, 2.781-6.938c 1.078-3.906, 0.266-4.797, 4.672-3.828c 2.422,0.578, 4.875,1.109, 7.297,1.672
		c 2.391,0.594, 5.828,7.844, 7.594,10.312c 3.016,4.188-2.281,3.594-4.141,5.5c-1.905,2, 4.109,4.547, 5.141,4.688
		c 3.109,0.406, 7.954,2.578, 8.062,6.75c 0.031,2-0.812,2.484, 1.766,2.625c 12.734,0.75, 6.672-3.688-1.219-7.625
		c-4.031-2.031-1.641-5.188-0.406-8.109c 1.875-4.328, 4.328-1.891, 7.641-0.922c 3.047,0.938, 7.266,0.594, 10.453,0.594
		c 0.984,0, 4-3.703, 2.125-4.203c-1.984-0.531-17.125-0.141-17.125-1.578c0-1.203, 3.516-1.844, 4-3.125
		c 0.328-0.969-8.328-0.25-9.656-2.188c-0.922-1.406-1.422-7.812-2.267-8.25c-2.311-1.344-7.265,1.531-10.608,0.25
		c-4.484-1.797-5.392-0.391-9.359-0.391c0,0-4.766-0.438-5.063-0.297c-2.858,1.812-0.874,7.812-2.452,8.469
		c-2.75,1.203-6.172-0.844-6.937-3.766c-0.517-1.984, 2.608-6.797, 2.452-7.078c-0.141-0.297-5.969,0.656-6.703,0.531
		c-2.313-0.469-4.078-2.469-5.734-4.109c-2.453-2.359-4.547-1.484-7.375-3.203c-1.359-0.781-0.328-2.75-1.281-3.969
		c-1.172-1.5-5.094-1.438-6.641-1.781c-1.172-0.281-12.031-3.781-11.594-4.281c 2.125-2.547, 9.656-0.812, 10.125-5.812
		c 1.328-12.016-10.265-7.625-17.125-7.438c-4.562,0.141-6.5-1.766-5.797-6.922c 0.578-4.203-1.438-5.25-1.547-8.703
		c-0.219-4.938, 4.655-5.531, 7.562-5.75c 1.172-0.062, 4.547-4.656, 4.875-4.344c 3.125,3.469, 2.202,2.531, 6.859,3.531
		c 3.75,0.781, 4.734,2.734, 7.892,4.625c 2.343,1.438-0.735,3.625, 2.202,6.328c 1.359,1.25, 7,2.891, 7.438,4.219
		c 1.953,5.391, 1.984,5.812, 7.312,4.312c 2.828-0.828, 4.766,0.672, 7.079,2.312c 5.312,3.641, 7.671-4.891, 11.812-7.172
		c 2.203-1.188, 4.812-1.766, 7.078-2.812c 2.422-1.062, 3.453-7.375, 5.359-7.484c 2.313-0.141-1.203,7.781, 5.25,6.891
		c-5.719,4.25-12.656,7.281-17.031,13.344c-2.891,4.125, 3.781,2.094, 5.141,0.609c 2.531-2.719, 5.984-4.141, 8.516-6.859
		c 5.094-5.547, 8.578-10.812, 12-17.969c 1.359-2.984, 13.016,1.453, 4.656,8.25c 0.547-0.438, 6.344,6.672, 8.031,3.938
		c 1.547-2.594-0.25-6.375, 0.984-8.953c 2.766-6.016, 13.062-4.578, 17.656-5.781c 2.344-0.656, 9.766,4.172, 9.422-0.297
		c-0.359-5.812-2.422-8.719-4.905-13.5c-1.282-2.406-3.596-1.781-5.282-2.844c-1.031,1.766-2.359,2.828-5.656,2.125
		c-2.016-0.375-10.266-6.281-10.531-5.781c-0.984,2.094, 11.594,7.156, 3.016,7.688c-5.11,0.312-15.126,4.156-19.126,1.156
		c-6.046-4.594-9.016-7-15.921-1.75c-3.328,2.594-7.812,2.859-11.438,5.281c-6.312,4.234, 1.203,2.594-0.891,8.688
		c-1.984,6.172-6.155,3.625-10.375,3.312c-10.969-0.781-19.345-1.234-29.531-6.719c-1.469-0.812-4.594,0.344-6.172,0.25
		c-2.781-0.172-4.922-2.594-7.077-4.219c-2.611-2.031-4.298-2.906-5.657-6.562c-2.343-6.359-0.358-7.25-6.312-10.891
		c-3.375-2.016-5.859-3.953-7.626-7.672c-2.062-4.312-6.969-10.719-5.093-15.609c 1.391-3.812, 3.077-8.484, 0.359-12.203
		c-1.547-2.188-4.328-5.438-2.859-7.609c 2.531-3.641-1.392-7.328, 3.344-9.766c 6.814-3.469, 10.188-11.156, 15.766-16.5
		c 1.141-1.125, 7.266-8.281, 8.844-6.078c 2.859,4.047, 5.609,3.922, 10.531,3.422c 5.984-0.578, 10.172,1.344, 15.453,4.094
		c 3.812,1.953, 7.922,1.766, 9.828-2.938c 1.687-4.391, 4.547-5.469, 8.407-2.266c 1.905,1.609, 6.968-0.938, 6.593-3.953
		c-0.547-4.281-5.859-10.531-4.547-15.531c 0.594-2.219, 5.828-6.281, 7.234-8.594c 2.203-3.719, 4.735-6.719, 4.547-11.328
		c-0.266-5.328, 5.062-9.672, 0.844-13.594c-9.906-9.094-0.766-20.703, 3.188-29.953c 1.766-4.109, 0.375-12.22, 2.719-15.281
		c 2.562-3.374, 5.906-7.562, 6.858-11.891c 0.814-3.703, 0.485-9.641, 4-11.531c 3.86-2.078, 9.204,1.172, 13.61,1.141
		c 11.156-0.125, 15.812,8.453, 23.109,16.031c 4.109,4.219, 1.219,9.562, 5.845,11.969c 5.062,2.625, 5.312,4.125, 3.78,9.812
		c-3.125,11.469, 9.344,11.031, 13.313,18.906c 2.203,4.344, 2.672,11.703, 2.281,16.593c-0.188,2.392-2.609,3.376-3.374,5.439
		c-0.813,2.125-0.782,4.406-1.079,6.625c-1.172,8.312, 4.844,13.328, 9.844,19.438c 3.594,4.375, 7.375,5.891, 11.297,9.312
		c 3.016,2.609, 3.781,6.438, 5.906,9.812c 0.953,1.469, 11.078,18.484, 6.266,19.062c-3.375,0.359-21.672-9.375-22.156-3.5
		c-0.688,8.812-7.922,12.25-11.266,20.094c-4.578,10.891-9.969,22.312-15.766,32.75c 4.405,0.781, 5.312,1.641, 7.954-3.641
		c 0.921-1.891, 5.062-7.578, 5.218-9.188c 0.767-8.547, 6.641-9.797, 9.687-16.344c 4.328-9.469, 1.313-21.141, 14.156-16.125
		c 4.984,1.922, 12.328,4.172, 16.656,7.234c 7.891,5.547, 13.766,7.203, 18.781,16.813c 2.641,4.953, 2.641,6.234-2.672,9.312
		c-0.703,0.438-6.5,5.141-6.281,5.141c-2.938,0-5.828-7.828-9.906-6.578c-0.328,0.094-5.016,6.625-5.469,7.438
		c-1.609,2.922-3.375,4.969-5.391,7.766c-2.234,3.156, 2.609,8.422, 4.078,5.594c 3-5.828, 5.688-7.641, 10.938-11.266
		c 3.655-2.531, 5.235,2.562, 8.141,1.25c 3.109-1.312, 3.562-5.719, 7.297-6.375c 3.016-0.531, 6.171-0.719, 9.25-0.719
		c 3.921,0, 6.968,2.891, 10.094,2.891c 2.234,0, 3.843-5.016, 6.594-5.547c 6.312-1.25, 2.688-16.125, 11.86-6.031
		c0-14.688, 3.671-23.438, 10.593-35.844c 0.922-1.594, 2.094-12.156, 4.516-9.25c 2.688,3.094, 4.766,8.156, 5.766,12.172
		c 0.844,3.703, 0.079,10.828, 1.906,13.906c 2.156,3.547, 8,6.219, 10.938,9.547c 3,3.375, 5.906,8.406, 10.594,8.406
		c 2.578,0, 4.922-0.453, 6.797,1.578c 2.672,2.953, 8.172-5.453, 10.25-11.422c 0.061-2.156, 0.328-4.266, 0.328-6.438
		C 480,102.484, 379.516,2, 256,2z M 355.282,311.609c 2.077-1.641, 3.296-1.516, 5.171-4.531c 1.249-2.078, 5.86-1.547, 2.86-4.516
		c-1.829-1.844, 0.765-3.844, 1.42-5.906c 2.173-6.984-0.874-9.531-7.593-7.578c-1.858,0.547-6.454,1.109-7.516,3.141
		c-0.469,0.844-1.939,6.203, 0.375,5.906c 1.531-0.203, 6.156,1.906, 5.641,4.156c-0.469,1.953-4.438,2.266-5.875,2.672
		c-5.452,1.703-8.609,11.406-3.625,15.047c 2.75,2, 6.422-0.781, 10.016,2c 2.453,1.859, 4.219,1.781, 6.938,0.141
		c 6.969-4.141, 1.141-10.266-2.938-5.859C 357.844,318.844, 353.406,313.094, 355.282,311.609z M 292.641,311.562
		c 3.093,2.25, 4.562,9.969, 9.141,8.938c 3.594-0.766, 3.047-9.109, 7.406-6.375c 0.375,0.188, 10.25,9.688, 9.953,5.812
		c-0.156-1.625-3.375-1.578-3.375-2.75c0-3, 13.422-6.438, 14.484-11.266c 0.953-4.266-8.797-3.594-10.968-3.328
		c-4.11,0.5-12.549,7.25-16.22,1.562c-0.635-0.862-11.827-2.105-12.344-2.58C 292.466,305.584, 288.437,308.543, 292.641,311.562z
		 M 191.641,355.531c 2.75,1.031, 3.266,0.688, 6.281,2.266c 2.016,1.047, 6.156-1.641, 7.516-3.062c 1.578-1.672-0.328-4.531, 1.5-6.875
		c 1.36-1.797, 2.719-4.5, 4.78-5.516c 4.438-2.125, 7.142-10.531,0-10.531c-2.608,0-5.14,1.344-7.718,1.344
		c-1.344,0-2.702-2.375-3.891-1.875c-1.172,0.531,0,1.828, 0.234,2.375c-10.125,1.938, 2.75,8.719, 1.97,9.469
		C 202.094,343.375, 184.187,352.812, 191.641,355.531z M 350.844,112.156c-1.577-4.438-2.688-12.47-6.281-15.438
		c-2.016-1.749-7.296-1.89-7.891,1.673c-0.328,2.078-2.312,10.484-0.906,11.984c 3.875,4.234-2.391,9.907, 0.844,13.562
		c 2.077,2.391, 5.234,2.031, 7.594,4.297c 1.859,1.875, 5.234,9.922, 8.25,8.969C 359.641,134.953, 352.375,116.594, 350.844,112.156z
		 M 182.844,335.234c-3.453,3.828, 1.828,11.641, 6.125,12.406C 201.141,349.844, 190.062,327.25, 182.844,335.234z M 441.937,194.156
		c-4.251-1.938-4.251,9.469-1.578,10.75C 442.891,206.125, 446.156,196.062, 441.937,194.156z M 234.531,297.875
		c-1.719,1.516-0.188,5.25, 1.906,5.25C 240.702,303.125, 238.672,294.109, 234.531,297.875z M 218.016,298.906
		c 1.733,2.906, 2.906,0.812, 2.422-0.266C 219.922,297.578, 217.469,297.891, 218.016,298.906z M 164.891,374.641
		c-1.938-1.562-12.719-4.859-14.406-3.203c-2.938,2.938-12.891,2.688-9.062,9.719c 0.876,1.594, 6.234-0.281, 7.141-1.234
		c 1.516-1.609, 7.531-0.125, 9.328,0.359C 161.781,381.344, 171.313,379.969, 164.891,374.641z M 246.859,294.438
		c 1.719,1.125, 12-0.781, 8.766-4.562C 252.625,286.312, 247.156,294.641, 246.859,294.438z"  />
<glyph unicode="&#xe02c;" d="M 359.188,264.297l-48.344-19.984c-9.344,13.219-20.938,24.969-34.531,34.594l 19.969,48.281L 236.406,352
		l-19.969-48.312c-16.438,2.812-32.906,2.703-48.875-0.062l-20,48.375l-59.906-24.781l 20.062-48.406
		c-13.219-9.344-24.938-20.891-34.562-34.5l-48.344,20.016L0,204.438l 48.344-20.016C 45.562,168, 45.688,151.5, 48.438,135.578
		L 0.062,115.531l 24.75-59.859l 48.406,20.016c 9.344-13.188, 20.906-24.922, 34.531-34.531l-20.031-48.359L 147.594-32l 20.031,48.344
		c 16.406-2.812, 32.906-2.688, 48.844,0.062L 236.5-32l 59.844,24.797l-20.031,48.375c 13.188,9.359, 24.938,20.922, 34.562,34.547
		l 48.312-20.031L 384,115.594l-48.344,19.969c 2.844,16.438, 2.719,32.906-0.031,48.875L 384,204.469L 359.188,264.297z M 192,80
		c-44.172,0-80,35.812-80,80s 35.828,80, 80,80s 80-35.812, 80-80S 236.172,80, 192,80z M 512,349.359L 512,386.656 l-30.156,0 
		c-2.062,9.359-5.812,18.125-10.75,26l 21.281,21.359l-26.344,26.391l-21.375-21.328c-7.844,4.938-16.594,8.641-25.969,10.766L 418.687,480 
		l-37.375,0 l0-30.156 c-9.344-2.125-18.031-5.828-25.969-10.766l-21.312,21.328l-26.438-26.391l 21.344-21.359
		c-4.938-7.875-8.656-16.641-10.812-26L 288,386.656 l0-37.359 l 30.125,0 c 2.156-9.344, 5.875-18.125, 10.812-25.969l-21.281-21.359l 26.375-26.375
		l 21.344,21.344c 7.906-4.984, 16.625-8.672, 26-10.781L 381.375,256 l 37.312,0 l0,30.156 c 9.375,2.109, 18.125,5.797, 26,10.781l 21.344-21.344
		L 492.375,302l-21.281,21.328c 4.938,7.906, 8.688,16.656, 10.812,26.031L 512,349.359 z M 400,320c-26.5,0-48,21.484-48,48s 21.5,48, 48,48
		c 26.531,0, 48-21.484, 48-48S 426.531,320, 400,320z"  />
<glyph unicode="&#xe02d;" d="M 161.75,373.334L0-32l 88.791,0 L 124,60.104l 161.541,0 L 318.791-32l 86.543,0 L 247.978,373.334L 161.75,373.334 z
		 M 150.166,128.334l 55.668,150.458l 54.582-150.458L 150.166,128.334 z M 512,373.334L 320,373.334 L 416,480L 512,373.334z"  />
<glyph unicode="&#xe02e;" d="M 136.208,309.336L0-32l 74.771,0 l 29.646,77.562l 136.042,0 L 268.469-32l 72.864,0 L 208.822,309.336L 136.208,309.336 z
		 M 126.469,103l 46.864,126.711L 219.302,103L 126.469,103 z M 416,373.336L 320,480l 192,0 L 416,373.336z"  />
<glyph unicode="&#xe02f;" d="M 32.078,352l 16.125,56.438C 49.109,411.625, 54.938,416, 58.25,416l 128,0 c 3.359,0, 9.281-4.437, 10.203-7.625
		L 213.203,352L 480,352 l0-320 L 32,32 L 32.078,352z M 512,352c0,17.594-14.406,32-32,32L 237.25,384 l-10.062,33.282
		C 222.281,434.189, 203.844,448, 186.25,448l-128,0 c-17.594,0-35.969-13.843-40.812-30.75C 17.438,417.25,0,356.719,0,352l0-320 
		c0-17.594, 14.398-32, 32-32l 448,0 c 17.594,0, 32,14.406, 32,32"  />
<glyph unicode="&#xe030;" d="M 352,192L 416,192L 416,160L 352,160zM 320,128L 416,128L 416,96L 320,96zM 320,64L 384,64L 384,32L 320,32zM 320,160L 352,160L 352,128L 320,128zM 384,96L 416,96L 416,64L 384,64zM 224,192L 256,192L 256,32L 224,32zM 256,64L 288,64L 288,32L 256,32zM 128,128L 160,128L 160,96L 128,96zM 96,192L 128,192L 128,128L 96,128zM 96,96L 128,96L 128,32L 96,32zM 160,192L 192,192L 192,128L 160,128zM 160,96L 192,96L 192,32L 160,32zM 448.375,374.625l-82.75,82.75C 353.172,469.812, 328.594,480, 311,480L 55,480 C 37.391,480, 23,465.594, 23,448l0-448 
		c0-17.594, 14.391-32, 32-32l 384,0 c 17.594,0, 32,14.406, 32,32L 471,320 C 471,337.594, 460.812,362.188, 448.375,374.625z M 439,0L 55,0 L 55,448 l 256,0 l0-128 
		l 128,0 L 439,0 z"  />
<glyph unicode="&#xe031;" d="M 384,192L 416,192L 416,160L 384,160zM 384,128L 416,128L 416,96L 384,96zM 352,192L 384,192L 384,32L 352,32zM 224,192L 256,192L 256,32L 224,32zM 288,160L 320,160L 320,64L 288,64zM 256,192L 288,192L 288,160L 256,160zM 256,64L 288,64L 288,32L 256,32zM 96,192L 128,192L 128,32L 96,32zM 128,192L 160,192L 160,160L 128,160zM 128,96L 160,96L 160,64L 128,64zM 160,160L 192,160L 192,95.333L 160,95.333zM 457.375,374.624l-82.75,82.75C 362.172,469.811, 337.594,479.999, 320,479.999L 64,479.999 c-17.609,0-32-14.406-32-32L 32,0 
		c0-17.594, 14.391-32, 32-32l 384,0 c 17.594,0, 32,14.406, 32,32L 480,319.999 C 480,337.593, 469.812,362.187, 457.375,374.624z M 448,0L 64,0 L 64,447.999 
		l 256,0 l0-128 l 128,0 L 448,0 z"  />
<glyph unicode="&#xe032;" d="M 384,192L 416,192L 416,160L 384,160zM 384,64L 416,64L 416,32L 384,32zM 352,160L 384,160L 384,64L 352,64zM 224,160L 256,160L 256,64L 224,64zM 256,192L 288,192L 288,160L 256,160zM 256,64L 288,64L 288,32L 256,32zM 288,160L 320,160L 320,64L 288,64zM 96,192L 128,192L 128,32L 96,32zM 160,160L 192,160L 192,64L 160,64zM 128,192L 160,192L 160,160L 128,160zM 128,64L 160,64L 160,32L 128,32zM 457.375,374.625l-82.75,82.75C 362.172,469.812, 337.594,480, 320,480L 64,480 C 46.391,480, 32,465.594, 32,448l0-448 
		c0-17.594, 14.391-32, 32-32l 384,0 c 17.594,0, 32,14.406, 32,32L 480,320 C 480,337.594, 469.812,362.188, 457.375,374.625z M 448,0L 64,0 L 64,448 l 256,0 l0-128 
		l 128,0 L 448,0 z"  />
<glyph unicode="&#xe033;" d="M 256,400C 163.344,400, 70.688,341.312,0,224c 70.688-117.312, 163.344-176, 256-176
		c 92.656,0, 185.312,58.688, 256,176C 441.312,341.312, 348.656,400, 256,400z M 256,80c-80.406,0-157.375,50.969-218.219,144
		C 98.625,317.031, 175.594,368, 256,368c 80.406,0, 157.375-50.969, 218.219-144C 413.375,130.969, 336.406,80, 256,80z M 256,320
		c-53,0-96-43-96-96s 43-96, 96-96s 96,43, 96,96S 309,320, 256,320z M 256,224l-32,0 l0,32 l-32,0 l0,32 l 32,0 l0-32 l 32,0 L 256,224 z"  />
<glyph unicode="&#xe034;" d="M 512,128l0-160 L0-32 L0,128 l 64,0 l0-96 l 384,0 l0,96 L 512,128 z M 256,480l 191.997-191.998l0-32.001 l-95.99,0 l0-159.999 
		c0-17.594-14.398-32-32-32L 192.001,64.002 c-17.593,0-31.999,14.406-31.999,32L 160.002,256.001 L 64.003,256.001 l0,32.001 L 256,480z"  />
<glyph unicode="&#xe035;" d="M 480.5,416l-448,0 c-17.601,0-32-14.406-32-32l0-320 c0-17.595, 14.398-32, 32-32l 448,0 c 17.594,0, 32,14.405, 32,32L 512.5,384 
		C 512.5,401.594, 498.094,416, 480.5,416z M 453.595,384L 256.496,202.344L 59.39,384L 453.595,384 z M 32.5,64L 32.5,364.969 L 256.496,160L 480.5,364.969
		L 480.5,64 L 32.5,64 z"  />
<glyph unicode="&#xe036;" d="M 256.004,64.002L 64.007,256l0,32.001 l 95.99,0 L 159.997,448 c0,17.594, 14.398,32, 32,32l 128.006,0 
		c 17.593,0, 31.999-14.406, 31.999-32l0-159.999 l 95.999,0 L 448.001,256 L 256.004,64.002z M 32.5-32l 448,0 l 32,0 l0,32 l0,64 l-32,0 l0-64 l-448,0 l0,64 l-32,0 l0-64 l0-32 L 32.5-32 z
		"  />
<glyph unicode="&#xe037;" d="M 457.375,374.625l-82.748,82.75C 362.174,469.812, 337.597,480, 320.003,480L 64,480 C 46.398,480, 32,465.594, 32,448l0-448 
		c0-17.594, 14.398-32, 32-32l 384.001,0 C 465.594-32, 480-17.594, 480,0L 480,320 C 480,337.594, 469.812,362.188, 457.375,374.625z
		 M 448.001,0L 64,0 L 64,448 l 256.003,0 l0-128 l 127.998,0 L 448.001,0 z"  />
<glyph unicode="&#xe038;" d="M 256,384l-96,0 L 160,480 L 256,384z M 256,352L 128,352 L 128,480 L 32,480 C 14.406,480,0,465.594,0,448l0-256 c0-17.594, 14.406-32, 32-32l 192,0 L 224,288 
		c0,17.594, 14.406,32, 32,32L 256,352 z M 384,288l-96,0 c-17.594,0-32-14.406-32-32l0-256 c0-17.594, 14.406-32, 32-32l 192,0 
		c 17.594,0, 32,14.406, 32,32L 512,160 L 384,160 L 384,288 z M 416,288l0-96 l 96,0 L 416,288z"  />
<glyph unicode="&#xe039;" d="M 512,448l0-128 l-32,0 L 480,448 L 512,448 z M 480,160l 32,0 L 512,288 l-32,0 L 480,160 z M 480,0l 32,0 L 512,128 l-32,0 L 480,0 z M 90.937,480L 448,480 l0-188.656 l0-134.719 
		l0-26.969 l0-102.688 L 448-32 L 90.937-32 C 76.156-32, 64-19.844, 64-5.031L 64,64 L0,64 l0,64 l 64,0 l0,64 L0,192 l0,64 l 64,0 l0,64 L0,320 L0,384 l 64,0 L 64,453.062 
		C 64,467.906, 76.156,480, 90.937,480z M 192.047,287.594c0-35.375, 28.641-64, 64.016-64c 35.359,0, 64.047,28.625, 64.047,64
		c0,35.344-28.688,64-64.047,64C 220.687,351.594, 192.047,322.938, 192.047,287.594z M 141.656,101.219
		c 6.062-4.25, 13.016-6.094, 19.875-5.688l 189.062,0 c 6.828-0.406, 13.844,1.438, 19.875,5.688c 14.469,10.156, 18,30.125, 7.891,44.594
		l-32.734,48.312c-10.172,14.594-31.453,17.625-45.969,7.469c-13.25-6.438-26.078-9.594-43.594-9.594
		c-17.5,0-30.344,3.156-43.594,9.594c-14.484,10.156-35.812,7.125-45.969-7.469l-32.719-48.312
		C 123.672,131.344, 127.172,111.375, 141.656,101.219z"  />
<glyph unicode="&#xe03a;" d="M 320.003,288l 127.998,0 l0-32 L 320.003,256 L 320.003,288 z M 320.003,192l 127.998,0 l0,32 L 320.003,224 L 320.003,192 z M 320.003,128l 127.998,0 l0,32 
		L 320.003,160 L 320.003,128 z M 320.003,64l 127.998,0 l0,32 L 320.003,96 L 320.003,64 z M 512,416l0-416 c0-17.594-14.406-32-32-32L 32-32 c-17.601,0-32,14.406-32,32L0,416 
		c0,17.594, 14.398,32, 32,32l 64.007,0 L 96.007,480 l 63.999,0 l0-32 l 63.999,0 L 224.005,480 l 64,0 l0-32 l 63.998,0 L 352.003,480 l 64,0 l0-32 L 480,448 C 497.594,448, 512,433.594, 512,416z M 480,416l-63.998,0 
		l0-64 l-64,0 L 352.002,416 l-63.998,0 l0-64 l-64,0 L 224.004,416 l-63.999,0 l0-64 L 96.006,352 L 96.006,416 L 32,416 l0-416 l 448,0 L 480,416 z M 176.020,175.969c 30.93,0, 56,25.062, 56,56s-25.070,56-56,56
		c-30.929,0-55.999-25.062-55.999-56S 145.091,175.969, 176.020,175.969z M 251.316,148.688C 245.098,154.906, 232.801,160, 224.004,160
		s-21.093-5.094-27.312-11.312l-9.375-9.375c-6.219-6.219-16.406-6.219-22.624,0l-9.375,9.375
		C 149.099,154.906, 136.803,160, 128.006,160c-8.797,0-21.093-5.094-27.312-11.312l-25.374-25.375
		c-6.219-6.219-11.312-18.516-11.312-27.312l0-16 c0-8.797, 7.203-16, 16-16l 191.997,0 c 8.797,0, 16,7.203, 16,16l0,16 
		c0,8.797-5.094,21.094-11.312,27.312L 251.316,148.688z"  />
<glyph unicode="&#xe03b;" d="M 384.002,352L 128.006,352 L 128.006,384 l 255.996,0 L 384.002,352 z M 384.002,320L 128.006,320 l0-32 l 255.996,0 L 384.002,320 z M 384.002,256L 128.006,256 l0-32 
		l 255.996,0 L 384.002,256 z M 512,448l0-320 c0-17.594-14.406-32-32-32L 256.004,96 L 128.006-32L 128.006,96 L 32,96 c-17.601,0-32,14.406-32,32L0,448 
		C0,465.594, 14.398,480, 32,480l 448,0 C 497.594,480, 512,465.594, 512,448z M 480,448L 32,448 l0-320 l 128.006,0 l0-82.75 L 242.746,128L 480,128 L 480,448 z"  />
<glyph unicode="&#xe03c;" d="M 256,480C 114.609,480,0,365.375,0,224s 114.609-256, 256-256s 256,114.625, 256,256S 397.391,480, 256,480z M 256,0
		C 132.484,0, 32,100.484, 32,224S 132.484,448, 256,448s 224-100.484, 224-224S 379.516,0, 256,0z M 384,224c0-17.594-14.406-32-32-32
		l-64,0 l-32,0 l-32,0 l0,32 l0,32 L 224,384 c0,17.594, 14.406,32, 32,32c 17.594,0, 32-14.406, 32-32l0-128 l 64,0 C 369.594,256, 384,241.594, 384,224z"  />
<glyph unicode="&#xe03d;" d="M 256,387l 256-256.141L 442.188,61L 256,247.286L 69.811,61L0,130.859L 256,387z"  />
<glyph unicode="&#xe03e;" d="M 419,224L 162.859-32L 93,37.812L 279.286,224L 93,410.189L 162.859,480L 419,224z"  />
<glyph unicode="&#xe03f;" d="M 93,224L 349.141,480L 419,410.188L 232.714,224L 419,37.81L 349.141-32L 93,224z"  />
<glyph unicode="&#xe040;" d="M 256,61L0,317.141L 69.813,387L 256,200.714L 442.19,387L 512,317.141L 256,61z"  />
<glyph unicode="&#xe041;" d="M 213.331,44L 12.504,245.395c-16.672,16.702-16.672,43.775,0,60.51c 16.664,16.701, 43.664,16.701, 60.328,0
		l 140.499-140.886L 439.166,391.45c 16.664,16.733, 43.664,16.733, 60.336,0c 16.664-16.702, 16.664-43.776,0-60.478L 213.331,44z"  />
<glyph unicode="&#xe042;" d="M 256,480C 114.625,480,0,365.375,0,224s 114.625-256, 256-256s 256,114.625, 256,256S 397.375,480, 256,480z
		 M 422.625,289.375L 224,90.75L 89.375,225.375c-12.5,12.5-12.5,32.75,0,45.25s 32.75,12.5, 45.25,0L 224,181.25l 153.375,153.375
		c 12.5,12.5, 32.75,12.5, 45.25,0S 435.125,301.875, 422.625,289.375z"  />
<glyph unicode="&#xe043;" d="M 256,480C 114.594,480,0,365.438,0,224c0-141.312, 114.594-256, 256-256c 141.344,0, 256,114.688, 256,256
		C 512,365.438, 397.344,480, 256,480z M 369.125,156.125c 12.438-12.438, 12.438-32.812,0-45.25s-32.812-12.438-45.25,0L 256,178.75
		l-67.875-67.844c-12.438-12.438-32.781-12.438-45.25,0c-12.438,12.438-12.438,32.812,0,45.25L 210.75,224l-67.844,67.875
		c-12.438,12.438-12.438,32.812,0,45.25s 32.812,12.438, 45.25,0L 256,269.25l 67.875,67.875c 12.438,12.438, 32.812,12.438, 45.25,0
		c 12.469-12.438, 12.438-32.812,0-45.25L 301.25,224L 369.125,156.125z"  />
<glyph unicode="&#xe044;" d="M 268.926,153.359c 4.172-7.766, 6.266-17.016, 6.266-27.797c0-13.5-3.453-26.469-10.359-38.859
		c-6.914-12.391-16.852-21.953-29.835-28.641C 222.012,51.359, 204.966,48, 183.841,48c-20.609,0-36.867,2.469-48.772,7.438
		c-11.898,4.969-21.68,12.219-29.367,21.781c-7.68,9.531-13.57,21.531-17.695,36l 62.905,8.562c 2.477-13, 6.312-21.984, 11.516-27
		c 5.211-5.016, 11.828-7.531, 19.867-7.531c 8.453,0, 15.484,3.188, 21.094,9.5c 5.609,6.344, 8.429,14.797, 8.429,25.344
		c0,10.75-2.711,19.094-8.117,25c-5.414,5.938-12.75,8.875-22.023,8.875c-4.953,0-11.75-1.266-20.406-3.797l 3.242,46.062
		c 3.516-0.531, 6.234-0.797, 8.195-0.797c 8.242,0, 15.117,2.703, 20.632,8.078c 5.523,5.391, 8.273,11.781, 8.273,19.156
		c0,7.062-2.055,12.734-6.188,16.953c-4.125,4.203-9.781,6.312-17,6.312c-7.421,0-13.445-2.281-18.085-6.875
		c-4.633-4.594-7.773-12.656-9.43-24.141l-59.507,10.922c 4.945,19.406, 14.453,34.281, 28.523,44.641
		C 133.99,282.844, 153.896,288, 179.661,288c 29.57,0, 50.96-5.625, 64.147-16.938c 13.188-11.312, 19.781-25.5, 19.781-42.594
		c0-10.031-2.672-19.094-8.031-27.219c-5.367-8.141-13.453-15.266-24.273-21.375c 8.765-2.219, 15.46-4.812, 20.093-7.75
		C 258.91,167.375, 264.754,161.109, 268.926,153.359z M 337.222,251.281c-11.688-9.922-28.094-18.438-49.218-25.5l0-52.875 
		c 14.327,4.531, 26.249,9.281, 35.718,14.25c 9.5,4.969, 18.125,11.469, 28.28,19.469L 352.002,48 l 64,0 L 416.002,288 l-51.344,0 
		C 358.049,273.438, 348.909,261.188, 337.222,251.281z M 512,416l0-416 c0-17.594-14.406-32-32-32L 32-32 c-17.601,0-32,14.406-32,32L0,416 
		c0,17.594, 14.398,32, 32,32l 64.007,0 L 96.007,480 l 63.999,0 l0-32 l 63.999,0 L 224.005,480 l 64,0 l0-32 l 63.998,0 L 352.003,480 l 64,0 l0-32 L 480,448 C 497.594,448, 512,433.594, 512,416z M 480,416l-63.998,0 
		l0-64 l-64,0 L 352.002,416 l-63.998,0 l0-64 l-64,0 L 224.004,416 l-63.999,0 l0-64 L 96.006,352 L 96.006,416 L 32,416 l0-416 l 448,0 L 480,416 z"  />
<glyph unicode="&#xe045;" d="M 512,352l0-128 l-32,0 L 480,352 L 213.203,352 l-16.75,56.375C 195.531,411.563, 189.609,416, 186.25,416l-128,0 
		c-3.312,0-9.141-4.375-10.047-7.562L 32.078,352L 32,32l 160,0 L 192,0 L 32,0 C 14.406,0,0,14.407,0,32L0,352 
		c0,4.719, 17.438,65.25, 17.438,65.25C 22.281,434.157, 40.656,448, 58.25,448l 128,0 c 17.594,0, 36.031-13.812, 40.938-30.718L 237.25,384L 480,384 
		C 497.594,384, 512,369.594, 512,352z M 429.906,111.376L 512,29.251L 466.75-16l-82.094,82.126
		c-19.031-11.25-40.969-18.125-64.656-18.125c-70.688,0-128,57.312-128,128S 249.312,304, 320,304s 128-57.311, 128-127.999
		C 448,152.314, 441.125,130.407, 429.906,111.376z M 320,80.001c 52.938,0, 96,43.062, 96,96S 372.938,272, 320,272s-96-43.061-96-95.999
		S 267.062,80.001, 320,80.001z"  />
<glyph unicode="&#xe046;" d="M 256,416L0,416 l0-384 l 256,0 l 256,0 L 512,416 L 256,416 z M 240,96L 32,96 L 32,384 l 208,0 L 240,96 z M 480,96L 272,96 L 272,384 l 208,0 L 480,96 z M 192,288L 64,288 l0,32 l 128,0 L 192,288 z
		 M 192,224L 64,224 l0,32 l 128,0 L 192,224 z M 192,160L 64,160 l0,32 l 128,0 L 192,160 z M 448,288L 320,288 l0,32 l 128,0 L 448,288 z M 448,224L 320,224 l0,32 l 128,0 L 448,224 z M 448,160L 320,160 l0,32 l 128,0 
		L 448,160 z"  />
<glyph unicode="&#xe047;" d="M 256,480C 114.609,480,0,365.391,0,224s 114.609-256, 256-256c 141.391,0, 256,114.609, 256,256S 397.391,480, 256,480z
			 M 374.628,201.372C 368.379,195.124, 360.189,192, 352,192c-8.19,0-16.379,3.124-22.628,9.372l-41.271,41.271l 0.149-114.602
			c 0.023-17.674-14.285-32.019-31.958-32.042c-0.014,0-0.028,0-0.043,0c-17.654,0-31.976,14.299-31.999,31.958l-0.15,114.887
			l-41.473-41.473C 176.379,195.124, 168.189,192, 160,192s-16.379,3.124-22.627,9.372c-12.497,12.497-12.497,32.759,0,45.256l 96,96
			c 0.119,0.119, 0.244,0.23, 0.365,0.347c 0.251,0.244, 0.502,0.488, 0.761,0.724c 0.206,0.187, 0.418,0.365, 0.628,0.546
			c 0.184,0.159, 0.366,0.321, 0.554,0.476c 0.249,0.205, 0.504,0.401, 0.758,0.597c 0.155,0.12, 0.308,0.243, 0.466,0.361
			c 0.277,0.206, 0.558,0.402, 0.839,0.598c 0.143,0.1, 0.284,0.202, 0.429,0.299c 0.291,0.196, 0.586,0.382, 0.882,0.567
			c 0.145,0.091, 0.288,0.183, 0.435,0.272c 0.292,0.176, 0.588,0.344, 0.885,0.51c 0.161,0.090, 0.32,0.182, 0.483,0.269
			c 0.282,0.152, 0.567,0.295, 0.852,0.438c 0.187,0.094, 0.374,0.188, 0.563,0.278c 0.262,0.124, 0.526,0.242, 0.79,0.359
			c 0.221,0.098, 0.442,0.196, 0.665,0.289c 0.237,0.098, 0.476,0.191, 0.715,0.283c 0.256,0.099, 0.511,0.198, 0.77,0.291
			c 0.212,0.076, 0.425,0.146, 0.638,0.217c 0.288,0.096, 0.576,0.192, 0.868,0.28c 0.192,0.058, 0.385,0.111, 0.579,0.165
			c 0.312,0.088, 0.624,0.175, 0.939,0.253c 0.183,0.046, 0.366,0.085, 0.549,0.128c 0.324,0.075, 0.649,0.149, 0.977,0.214
			c 0.187,0.037, 0.375,0.068, 0.562,0.101c 0.322,0.058, 0.644,0.116, 0.97,0.164c 0.214,0.032, 0.429,0.055, 0.644,0.083
			c 0.299,0.038, 0.596,0.078, 0.898,0.108c 0.272,0.027, 0.545,0.043, 0.817,0.063c 0.247,0.018, 0.493,0.041, 0.742,0.053
			c 0.401,0.020, 0.803,0.027, 1.205,0.032c 0.12,0.001, 0.238,0.009, 0.358,0.010c 0.014,0, 0.028,0, 0.043,0c 0.006,0, 0.012-0.001, 0.018-0.001
			c 0.521,0, 1.041-0.014, 1.562-0.039c 0.255-0.012, 0.507-0.036, 0.761-0.055c 0.266-0.019, 0.531-0.035, 0.797-0.061
			c 0.318-0.031, 0.633-0.074, 0.949-0.114c 0.197-0.025, 0.395-0.046, 0.591-0.075c 0.344-0.050, 0.683-0.112, 1.023-0.173
			c 0.169-0.031, 0.339-0.057, 0.507-0.090c 0.344-0.068, 0.685-0.145, 1.025-0.224c 0.167-0.038, 0.334-0.074, 0.5-0.115
			c 0.328-0.081, 0.653-0.172, 0.978-0.264c 0.18-0.051, 0.361-0.099, 0.54-0.153c 0.301-0.091, 0.599-0.189, 0.896-0.289
			c 0.203-0.068, 0.407-0.134, 0.61-0.206c 0.266-0.095, 0.528-0.196, 0.79-0.298c 0.232-0.090, 0.465-0.179, 0.696-0.274
			c 0.227-0.094, 0.45-0.194, 0.674-0.293c 0.261-0.115, 0.522-0.23, 0.781-0.353c 0.19-0.090, 0.376-0.185, 0.564-0.279
			c 0.285-0.142, 0.57-0.285, 0.852-0.436c 0.159-0.085, 0.314-0.175, 0.471-0.263c 0.301-0.168, 0.601-0.337, 0.897-0.515
			c 0.139-0.084, 0.275-0.172, 0.412-0.258c 0.304-0.189, 0.608-0.38, 0.907-0.581c 0.132-0.089, 0.26-0.182, 0.391-0.273
			c 0.295-0.204, 0.59-0.409, 0.879-0.625c 0.141-0.105, 0.277-0.215, 0.415-0.322c 0.272-0.209, 0.544-0.417, 0.81-0.636
			c 0.173-0.142, 0.339-0.291, 0.509-0.437c 0.226-0.193, 0.453-0.383, 0.675-0.584c 0.348-0.315, 0.687-0.64, 1.020-0.97
			c 0.041-0.041, 0.085-0.078, 0.126-0.119l 96-96C 387.124,234.131, 387.124,213.869, 374.628,201.372z"  />
<glyph unicode="&#xe048;" d="M 480,448l0-448 L 32,0 L 32,448 L 480,448  M 480,480L 32,480 C 14.398,480,0,465.594,0,448l0-448 
		c0-17.594, 14.398-32, 32-32l 448,0 c 17.594,0, 32,14.406, 32,32L 512,448 C 512,465.594, 497.594,480, 480,480L 480,480z M 288,384l-64,0 l0-192 l 64,0 L 288,384 z M 288,128
		l-64,0 l0-64 l 64,0 L 288,128 z"  />
<glyph unicode="&#xe000;" d="M 502.66,45.215L 384.909,163.014c 19.594,31.719, 31.094,68.969, 31.094,108.984
		C 416.003,386.876, 322.878,480, 208.002,480S0,386.876,0,271.998c0-114.874, 93.126-208.002, 208.002-208.002
		c 40.031,0, 77.281,11.499, 109.031,31.093l 117.75-117.749c 12.453-12.453, 32.814-12.453, 45.252,0l 22.625,22.625
		C 515.113,12.402, 515.113,32.777, 502.66,45.215z M 32,271.998C 32,369.048, 110.954,448, 208.002,448
		c 97.047,0, 176.001-78.952, 176.001-176.002c0-97.047-78.954-176.003-176.001-176.003C 110.954,95.995, 32,174.951, 32,271.998z"  />
<glyph unicode="&#x20;" horiz-adv-x="256" />
</font>
</defs>
</svg>
